<svg width="1116" height="451" viewBox="0 0 1116 451" fill="none" xmlns="http://www.w3.org/2000/svg">
<g opacity="0.7">
<g opacity="0.5">
<path d="M479.126 51.2198C482.332 52.0576 485 49.6708 485 46.3571V24.7424C485 21.4287 482.314 18.7424 479 18.7424H453.8C450.486 18.7424 448.68 16.2331 449.949 13.1722C451.922 8.41591 452.364 3 435.4 3C418.863 3 418.867 8.55848 420.705 13.2235C421.92 16.3065 420.314 18.7424 417 18.7424H391.8C388.486 18.7424 385.8 21.4287 385.8 24.7424V46.3571C385.8 49.6708 383.123 52.148 379.862 51.5573C371.818 50.0999 361 48.1606 361 59.9505C361 71.7404 371.818 69.8011 379.862 68.3437C383.123 67.753 385.8 70.2301 385.8 73.5439V91.9174C385.8 95.2311 388.486 97.9174 391.8 97.9174H417C420.314 97.9174 422.101 95.4169 420.808 92.3659C418.872 87.799 418.559 82.7306 435.4 82.7306C452.241 82.7306 451.928 87.799 449.992 92.3659C448.699 95.4169 450.486 97.9174 453.8 97.9174H479C482.314 97.9174 485 95.2311 485 91.9174V73.5439C485 70.2301 482.339 67.9096 479.194 68.9536C470.291 71.9091 456.882 77.1435 456.882 59.9505C456.882 44.9903 470.223 48.8934 479.126 51.2198Z" stroke="#FFA800" stroke-opacity="0.4" stroke-width="4.94"/>
<path d="M479.126 51.2198C482.332 52.0576 485 49.6708 485 46.3571V24.7424C485 21.4287 482.314 18.7424 479 18.7424H453.8C450.486 18.7424 448.68 16.2331 449.949 13.1722C451.922 8.41591 452.364 3 435.4 3C418.863 3 418.867 8.55848 420.705 13.2235C421.92 16.3065 420.314 18.7424 417 18.7424H391.8C388.486 18.7424 385.8 21.4287 385.8 24.7424V46.3571C385.8 49.6708 383.123 52.148 379.862 51.5573C371.818 50.0999 361 48.1606 361 59.9505C361 71.7404 371.818 69.8011 379.862 68.3437C383.123 67.753 385.8 70.2301 385.8 73.5439V91.9174C385.8 95.2311 388.486 97.9174 391.8 97.9174H417C420.314 97.9174 422.101 95.4169 420.808 92.3659C418.872 87.799 418.559 82.7306 435.4 82.7306C452.241 82.7306 451.928 87.799 449.992 92.3659C448.699 95.4169 450.486 97.9174 453.8 97.9174H479C482.314 97.9174 485 95.2311 485 91.9174V73.5439C485 70.2301 482.339 67.9096 479.194 68.9536C470.291 71.9091 456.882 77.1435 456.882 59.9505C456.882 44.9903 470.223 48.8934 479.126 51.2198Z" stroke="#FFA800" stroke-opacity="0.4" stroke-width="4.94"/>
<path d="M479.126 51.2198C482.332 52.0576 485 49.6708 485 46.3571V24.7424C485 21.4287 482.314 18.7424 479 18.7424H453.8C450.486 18.7424 448.68 16.2331 449.949 13.1722C451.922 8.41591 452.364 3 435.4 3C418.863 3 418.867 8.55848 420.705 13.2235C421.92 16.3065 420.314 18.7424 417 18.7424H391.8C388.486 18.7424 385.8 21.4287 385.8 24.7424V46.3571C385.8 49.6708 383.123 52.148 379.862 51.5573C371.818 50.0999 361 48.1606 361 59.9505C361 71.7404 371.818 69.8011 379.862 68.3437C383.123 67.753 385.8 70.2301 385.8 73.5439V91.9174C385.8 95.2311 388.486 97.9174 391.8 97.9174H417C420.314 97.9174 422.101 95.4169 420.808 92.3659C418.872 87.799 418.559 82.7306 435.4 82.7306C452.241 82.7306 451.928 87.799 449.992 92.3659C448.699 95.4169 450.486 97.9174 453.8 97.9174H479C482.314 97.9174 485 95.2311 485 91.9174V73.5439C485 70.2301 482.339 67.9096 479.194 68.9536C470.291 71.9091 456.882 77.1435 456.882 59.9505C456.882 44.9903 470.223 48.8934 479.126 51.2198Z" stroke="#FFA800" stroke-opacity="0.4" stroke-width="4.94"/>
<path d="M479.126 51.2198C482.332 52.0576 485 49.6708 485 46.3571V24.7424C485 21.4287 482.314 18.7424 479 18.7424H453.8C450.486 18.7424 448.68 16.2331 449.949 13.1722C451.922 8.41591 452.364 3 435.4 3C418.863 3 418.867 8.55848 420.705 13.2235C421.92 16.3065 420.314 18.7424 417 18.7424H391.8C388.486 18.7424 385.8 21.4287 385.8 24.7424V46.3571C385.8 49.6708 383.123 52.148 379.862 51.5573C371.818 50.0999 361 48.1606 361 59.9505C361 71.7404 371.818 69.8011 379.862 68.3437C383.123 67.753 385.8 70.2301 385.8 73.5439V91.9174C385.8 95.2311 388.486 97.9174 391.8 97.9174H417C420.314 97.9174 422.101 95.4169 420.808 92.3659C418.872 87.799 418.559 82.7306 435.4 82.7306C452.241 82.7306 451.928 87.799 449.992 92.3659C448.699 95.4169 450.486 97.9174 453.8 97.9174H479C482.314 97.9174 485 95.2311 485 91.9174V73.5439C485 70.2301 482.339 67.9096 479.194 68.9536C470.291 71.9091 456.882 77.1435 456.882 59.9505C456.882 44.9903 470.223 48.8934 479.126 51.2198Z" stroke="#FFA800" stroke-opacity="0.4" stroke-width="4.94"/>
</g>
<g opacity="0.5">
<path d="M121.126 175.22C124.332 176.058 127 173.671 127 170.357V148.742C127 145.429 124.314 142.742 121 142.742H95.8C92.4863 142.742 90.6798 140.233 91.9494 137.172C93.9221 132.416 94.3637 127 77.4 127C60.8632 127 60.8667 132.558 62.7049 137.224C63.9197 140.307 62.3137 142.742 59 142.742H33.8C30.4863 142.742 27.8 145.429 27.8 148.742V170.357C27.8 173.671 25.1228 176.148 21.8622 175.557C13.8175 174.1 3 172.161 3 183.95C3 195.74 13.8175 193.801 21.8622 192.344C25.1228 191.753 27.8 194.23 27.8 197.544V215.917C27.8 219.231 30.4863 221.917 33.8 221.917H59C62.3137 221.917 64.101 219.417 62.8079 216.366C60.8724 211.799 60.5594 206.731 77.4 206.731C94.2406 206.731 93.9276 211.799 91.9921 216.366C90.699 219.417 92.4863 221.917 95.8 221.917H121C124.314 221.917 127 219.231 127 215.917V197.544C127 194.23 124.339 191.91 121.194 192.954C112.291 195.909 98.8817 201.144 98.8817 183.95C98.8817 168.99 112.223 172.893 121.126 175.22Z" stroke="#FFA800" stroke-opacity="0.4" stroke-width="4.94"/>
<path d="M121.126 175.22C124.332 176.058 127 173.671 127 170.357V148.742C127 145.429 124.314 142.742 121 142.742H95.8C92.4863 142.742 90.6798 140.233 91.9494 137.172C93.9221 132.416 94.3637 127 77.4 127C60.8632 127 60.8667 132.558 62.7049 137.224C63.9197 140.307 62.3137 142.742 59 142.742H33.8C30.4863 142.742 27.8 145.429 27.8 148.742V170.357C27.8 173.671 25.1228 176.148 21.8622 175.557C13.8175 174.1 3 172.161 3 183.95C3 195.74 13.8175 193.801 21.8622 192.344C25.1228 191.753 27.8 194.23 27.8 197.544V215.917C27.8 219.231 30.4863 221.917 33.8 221.917H59C62.3137 221.917 64.101 219.417 62.8079 216.366C60.8724 211.799 60.5594 206.731 77.4 206.731C94.2406 206.731 93.9276 211.799 91.9921 216.366C90.699 219.417 92.4863 221.917 95.8 221.917H121C124.314 221.917 127 219.231 127 215.917V197.544C127 194.23 124.339 191.91 121.194 192.954C112.291 195.909 98.8817 201.144 98.8817 183.95C98.8817 168.99 112.223 172.893 121.126 175.22Z" stroke="#FFA800" stroke-opacity="0.4" stroke-width="4.94"/>
<path d="M121.126 175.22C124.332 176.058 127 173.671 127 170.357V148.742C127 145.429 124.314 142.742 121 142.742H95.8C92.4863 142.742 90.6798 140.233 91.9494 137.172C93.9221 132.416 94.3637 127 77.4 127C60.8632 127 60.8667 132.558 62.7049 137.224C63.9197 140.307 62.3137 142.742 59 142.742H33.8C30.4863 142.742 27.8 145.429 27.8 148.742V170.357C27.8 173.671 25.1228 176.148 21.8622 175.557C13.8175 174.1 3 172.161 3 183.95C3 195.74 13.8175 193.801 21.8622 192.344C25.1228 191.753 27.8 194.23 27.8 197.544V215.917C27.8 219.231 30.4863 221.917 33.8 221.917H59C62.3137 221.917 64.101 219.417 62.8079 216.366C60.8724 211.799 60.5594 206.731 77.4 206.731C94.2406 206.731 93.9276 211.799 91.9921 216.366C90.699 219.417 92.4863 221.917 95.8 221.917H121C124.314 221.917 127 219.231 127 215.917V197.544C127 194.23 124.339 191.91 121.194 192.954C112.291 195.909 98.8817 201.144 98.8817 183.95C98.8817 168.99 112.223 172.893 121.126 175.22Z" stroke="#FFA800" stroke-opacity="0.4" stroke-width="4.94"/>
<path d="M121.126 175.22C124.332 176.058 127 173.671 127 170.357V148.742C127 145.429 124.314 142.742 121 142.742H95.8C92.4863 142.742 90.6798 140.233 91.9494 137.172C93.9221 132.416 94.3637 127 77.4 127C60.8632 127 60.8667 132.558 62.7049 137.224C63.9197 140.307 62.3137 142.742 59 142.742H33.8C30.4863 142.742 27.8 145.429 27.8 148.742V170.357C27.8 173.671 25.1228 176.148 21.8622 175.557C13.8175 174.1 3 172.161 3 183.95C3 195.74 13.8175 193.801 21.8622 192.344C25.1228 191.753 27.8 194.23 27.8 197.544V215.917C27.8 219.231 30.4863 221.917 33.8 221.917H59C62.3137 221.917 64.101 219.417 62.8079 216.366C60.8724 211.799 60.5594 206.731 77.4 206.731C94.2406 206.731 93.9276 211.799 91.9921 216.366C90.699 219.417 92.4863 221.917 95.8 221.917H121C124.314 221.917 127 219.231 127 215.917V197.544C127 194.23 124.339 191.91 121.194 192.954C112.291 195.909 98.8817 201.144 98.8817 183.95C98.8817 168.99 112.223 172.893 121.126 175.22Z" stroke="#FFA800" stroke-opacity="0.4" stroke-width="4.94"/>
</g>
<g opacity="0.5">
<path d="M947.126 146.22C950.332 147.058 953 144.671 953 141.357V119.742C953 116.429 950.314 113.742 947 113.742H921.8C918.486 113.742 916.68 111.233 917.949 108.172C919.922 103.416 920.364 98 903.4 98C886.863 98 886.867 103.558 888.705 108.224C889.92 111.307 888.314 113.742 885 113.742H859.8C856.486 113.742 853.8 116.429 853.8 119.742V141.357C853.8 144.671 851.123 147.148 847.862 146.557C839.818 145.1 829 143.161 829 154.95C829 166.74 839.818 164.801 847.862 163.344C851.123 162.753 853.8 165.23 853.8 168.544V186.917C853.8 190.231 856.486 192.917 859.8 192.917H885C888.314 192.917 890.101 190.417 888.808 187.366C886.872 182.799 886.559 177.731 903.4 177.731C920.241 177.731 919.928 182.799 917.992 187.366C916.699 190.417 918.486 192.917 921.8 192.917H947C950.314 192.917 953 190.231 953 186.917V168.544C953 165.23 950.339 162.91 947.194 163.954C938.291 166.909 924.882 172.144 924.882 154.95C924.882 139.99 938.223 143.893 947.126 146.22Z" stroke="#FFA800" stroke-opacity="0.4" stroke-width="4.94"/>
<path d="M947.126 146.22C950.332 147.058 953 144.671 953 141.357V119.742C953 116.429 950.314 113.742 947 113.742H921.8C918.486 113.742 916.68 111.233 917.949 108.172C919.922 103.416 920.364 98 903.4 98C886.863 98 886.867 103.558 888.705 108.224C889.92 111.307 888.314 113.742 885 113.742H859.8C856.486 113.742 853.8 116.429 853.8 119.742V141.357C853.8 144.671 851.123 147.148 847.862 146.557C839.818 145.1 829 143.161 829 154.95C829 166.74 839.818 164.801 847.862 163.344C851.123 162.753 853.8 165.23 853.8 168.544V186.917C853.8 190.231 856.486 192.917 859.8 192.917H885C888.314 192.917 890.101 190.417 888.808 187.366C886.872 182.799 886.559 177.731 903.4 177.731C920.241 177.731 919.928 182.799 917.992 187.366C916.699 190.417 918.486 192.917 921.8 192.917H947C950.314 192.917 953 190.231 953 186.917V168.544C953 165.23 950.339 162.91 947.194 163.954C938.291 166.909 924.882 172.144 924.882 154.95C924.882 139.99 938.223 143.893 947.126 146.22Z" stroke="#FFA800" stroke-opacity="0.4" stroke-width="4.94"/>
<path d="M947.126 146.22C950.332 147.058 953 144.671 953 141.357V119.742C953 116.429 950.314 113.742 947 113.742H921.8C918.486 113.742 916.68 111.233 917.949 108.172C919.922 103.416 920.364 98 903.4 98C886.863 98 886.867 103.558 888.705 108.224C889.92 111.307 888.314 113.742 885 113.742H859.8C856.486 113.742 853.8 116.429 853.8 119.742V141.357C853.8 144.671 851.123 147.148 847.862 146.557C839.818 145.1 829 143.161 829 154.95C829 166.74 839.818 164.801 847.862 163.344C851.123 162.753 853.8 165.23 853.8 168.544V186.917C853.8 190.231 856.486 192.917 859.8 192.917H885C888.314 192.917 890.101 190.417 888.808 187.366C886.872 182.799 886.559 177.731 903.4 177.731C920.241 177.731 919.928 182.799 917.992 187.366C916.699 190.417 918.486 192.917 921.8 192.917H947C950.314 192.917 953 190.231 953 186.917V168.544C953 165.23 950.339 162.91 947.194 163.954C938.291 166.909 924.882 172.144 924.882 154.95C924.882 139.99 938.223 143.893 947.126 146.22Z" stroke="#FFA800" stroke-opacity="0.4" stroke-width="4.94"/>
<path d="M947.126 146.22C950.332 147.058 953 144.671 953 141.357V119.742C953 116.429 950.314 113.742 947 113.742H921.8C918.486 113.742 916.68 111.233 917.949 108.172C919.922 103.416 920.364 98 903.4 98C886.863 98 886.867 103.558 888.705 108.224C889.92 111.307 888.314 113.742 885 113.742H859.8C856.486 113.742 853.8 116.429 853.8 119.742V141.357C853.8 144.671 851.123 147.148 847.862 146.557C839.818 145.1 829 143.161 829 154.95C829 166.74 839.818 164.801 847.862 163.344C851.123 162.753 853.8 165.23 853.8 168.544V186.917C853.8 190.231 856.486 192.917 859.8 192.917H885C888.314 192.917 890.101 190.417 888.808 187.366C886.872 182.799 886.559 177.731 903.4 177.731C920.241 177.731 919.928 182.799 917.992 187.366C916.699 190.417 918.486 192.917 921.8 192.917H947C950.314 192.917 953 190.231 953 186.917V168.544C953 165.23 950.339 162.91 947.194 163.954C938.291 166.909 924.882 172.144 924.882 154.95C924.882 139.99 938.223 143.893 947.126 146.22Z" stroke="#FFA800" stroke-opacity="0.4" stroke-width="4.94"/>
</g>
<g opacity="0.5">
<path d="M857.126 401.22C860.332 402.058 863 399.671 863 396.357V374.742C863 371.429 860.314 368.742 857 368.742H831.8C828.486 368.742 826.68 366.233 827.949 363.172C829.922 358.416 830.364 353 813.4 353C796.863 353 796.867 358.558 798.705 363.224C799.92 366.307 798.314 368.742 795 368.742H769.8C766.486 368.742 763.8 371.429 763.8 374.742V396.357C763.8 399.671 761.123 402.148 757.862 401.557C749.818 400.1 739 398.161 739 409.95C739 421.74 749.818 419.801 757.862 418.344C761.123 417.753 763.8 420.23 763.8 423.544V441.917C763.8 445.231 766.486 447.917 769.8 447.917H795C798.314 447.917 800.101 445.417 798.808 442.366C796.872 437.799 796.559 432.731 813.4 432.731C830.241 432.731 829.928 437.799 827.992 442.366C826.699 445.417 828.486 447.917 831.8 447.917H857C860.314 447.917 863 445.231 863 441.917V423.544C863 420.23 860.339 417.91 857.194 418.954C848.291 421.909 834.882 427.144 834.882 409.95C834.882 394.99 848.223 398.893 857.126 401.22Z" stroke="#FFA800" stroke-opacity="0.4" stroke-width="4.94"/>
<path d="M857.126 401.22C860.332 402.058 863 399.671 863 396.357V374.742C863 371.429 860.314 368.742 857 368.742H831.8C828.486 368.742 826.68 366.233 827.949 363.172C829.922 358.416 830.364 353 813.4 353C796.863 353 796.867 358.558 798.705 363.224C799.92 366.307 798.314 368.742 795 368.742H769.8C766.486 368.742 763.8 371.429 763.8 374.742V396.357C763.8 399.671 761.123 402.148 757.862 401.557C749.818 400.1 739 398.161 739 409.95C739 421.74 749.818 419.801 757.862 418.344C761.123 417.753 763.8 420.23 763.8 423.544V441.917C763.8 445.231 766.486 447.917 769.8 447.917H795C798.314 447.917 800.101 445.417 798.808 442.366C796.872 437.799 796.559 432.731 813.4 432.731C830.241 432.731 829.928 437.799 827.992 442.366C826.699 445.417 828.486 447.917 831.8 447.917H857C860.314 447.917 863 445.231 863 441.917V423.544C863 420.23 860.339 417.91 857.194 418.954C848.291 421.909 834.882 427.144 834.882 409.95C834.882 394.99 848.223 398.893 857.126 401.22Z" stroke="#FFA800" stroke-opacity="0.4" stroke-width="4.94"/>
<path d="M857.126 401.22C860.332 402.058 863 399.671 863 396.357V374.742C863 371.429 860.314 368.742 857 368.742H831.8C828.486 368.742 826.68 366.233 827.949 363.172C829.922 358.416 830.364 353 813.4 353C796.863 353 796.867 358.558 798.705 363.224C799.92 366.307 798.314 368.742 795 368.742H769.8C766.486 368.742 763.8 371.429 763.8 374.742V396.357C763.8 399.671 761.123 402.148 757.862 401.557C749.818 400.1 739 398.161 739 409.95C739 421.74 749.818 419.801 757.862 418.344C761.123 417.753 763.8 420.23 763.8 423.544V441.917C763.8 445.231 766.486 447.917 769.8 447.917H795C798.314 447.917 800.101 445.417 798.808 442.366C796.872 437.799 796.559 432.731 813.4 432.731C830.241 432.731 829.928 437.799 827.992 442.366C826.699 445.417 828.486 447.917 831.8 447.917H857C860.314 447.917 863 445.231 863 441.917V423.544C863 420.23 860.339 417.91 857.194 418.954C848.291 421.909 834.882 427.144 834.882 409.95C834.882 394.99 848.223 398.893 857.126 401.22Z" stroke="#FFA800" stroke-opacity="0.4" stroke-width="4.94"/>
<path d="M857.126 401.22C860.332 402.058 863 399.671 863 396.357V374.742C863 371.429 860.314 368.742 857 368.742H831.8C828.486 368.742 826.68 366.233 827.949 363.172C829.922 358.416 830.364 353 813.4 353C796.863 353 796.867 358.558 798.705 363.224C799.92 366.307 798.314 368.742 795 368.742H769.8C766.486 368.742 763.8 371.429 763.8 374.742V396.357C763.8 399.671 761.123 402.148 757.862 401.557C749.818 400.1 739 398.161 739 409.95C739 421.74 749.818 419.801 757.862 418.344C761.123 417.753 763.8 420.23 763.8 423.544V441.917C763.8 445.231 766.486 447.917 769.8 447.917H795C798.314 447.917 800.101 445.417 798.808 442.366C796.872 437.799 796.559 432.731 813.4 432.731C830.241 432.731 829.928 437.799 827.992 442.366C826.699 445.417 828.486 447.917 831.8 447.917H857C860.314 447.917 863 445.231 863 441.917V423.544C863 420.23 860.339 417.91 857.194 418.954C848.291 421.909 834.882 427.144 834.882 409.95C834.882 394.99 848.223 398.893 857.126 401.22Z" stroke="#FFA800" stroke-opacity="0.4" stroke-width="4.94"/>
</g>
<g opacity="0.5">
<path d="M202.126 401.22C205.332 402.058 208 399.671 208 396.357V374.742C208 371.429 205.314 368.742 202 368.742H176.8C173.486 368.742 171.68 366.233 172.949 363.172C174.922 358.416 175.364 353 158.4 353C141.863 353 141.867 358.558 143.705 363.224C144.92 366.307 143.314 368.742 140 368.742H114.8C111.486 368.742 108.8 371.429 108.8 374.742V396.357C108.8 399.671 106.123 402.148 102.862 401.557C94.8175 400.1 84 398.161 84 409.95C84 421.74 94.8175 419.801 102.862 418.344C106.123 417.753 108.8 420.23 108.8 423.544V441.917C108.8 445.231 111.486 447.917 114.8 447.917H140C143.314 447.917 145.101 445.417 143.808 442.366C141.872 437.799 141.559 432.731 158.4 432.731C175.241 432.731 174.928 437.799 172.992 442.366C171.699 445.417 173.486 447.917 176.8 447.917H202C205.314 447.917 208 445.231 208 441.917V423.544C208 420.23 205.339 417.91 202.194 418.954C193.291 421.909 179.882 427.144 179.882 409.95C179.882 394.99 193.223 398.893 202.126 401.22Z" stroke="#FFA800" stroke-opacity="0.4" stroke-width="4.94"/>
<path d="M202.126 401.22C205.332 402.058 208 399.671 208 396.357V374.742C208 371.429 205.314 368.742 202 368.742H176.8C173.486 368.742 171.68 366.233 172.949 363.172C174.922 358.416 175.364 353 158.4 353C141.863 353 141.867 358.558 143.705 363.224C144.92 366.307 143.314 368.742 140 368.742H114.8C111.486 368.742 108.8 371.429 108.8 374.742V396.357C108.8 399.671 106.123 402.148 102.862 401.557C94.8175 400.1 84 398.161 84 409.95C84 421.74 94.8175 419.801 102.862 418.344C106.123 417.753 108.8 420.23 108.8 423.544V441.917C108.8 445.231 111.486 447.917 114.8 447.917H140C143.314 447.917 145.101 445.417 143.808 442.366C141.872 437.799 141.559 432.731 158.4 432.731C175.241 432.731 174.928 437.799 172.992 442.366C171.699 445.417 173.486 447.917 176.8 447.917H202C205.314 447.917 208 445.231 208 441.917V423.544C208 420.23 205.339 417.91 202.194 418.954C193.291 421.909 179.882 427.144 179.882 409.95C179.882 394.99 193.223 398.893 202.126 401.22Z" stroke="#FFA800" stroke-opacity="0.4" stroke-width="4.94"/>
<path d="M202.126 401.22C205.332 402.058 208 399.671 208 396.357V374.742C208 371.429 205.314 368.742 202 368.742H176.8C173.486 368.742 171.68 366.233 172.949 363.172C174.922 358.416 175.364 353 158.4 353C141.863 353 141.867 358.558 143.705 363.224C144.92 366.307 143.314 368.742 140 368.742H114.8C111.486 368.742 108.8 371.429 108.8 374.742V396.357C108.8 399.671 106.123 402.148 102.862 401.557C94.8175 400.1 84 398.161 84 409.95C84 421.74 94.8175 419.801 102.862 418.344C106.123 417.753 108.8 420.23 108.8 423.544V441.917C108.8 445.231 111.486 447.917 114.8 447.917H140C143.314 447.917 145.101 445.417 143.808 442.366C141.872 437.799 141.559 432.731 158.4 432.731C175.241 432.731 174.928 437.799 172.992 442.366C171.699 445.417 173.486 447.917 176.8 447.917H202C205.314 447.917 208 445.231 208 441.917V423.544C208 420.23 205.339 417.91 202.194 418.954C193.291 421.909 179.882 427.144 179.882 409.95C179.882 394.99 193.223 398.893 202.126 401.22Z" stroke="#FFA800" stroke-opacity="0.4" stroke-width="4.94"/>
<path d="M202.126 401.22C205.332 402.058 208 399.671 208 396.357V374.742C208 371.429 205.314 368.742 202 368.742H176.8C173.486 368.742 171.68 366.233 172.949 363.172C174.922 358.416 175.364 353 158.4 353C141.863 353 141.867 358.558 143.705 363.224C144.92 366.307 143.314 368.742 140 368.742H114.8C111.486 368.742 108.8 371.429 108.8 374.742V396.357C108.8 399.671 106.123 402.148 102.862 401.557C94.8175 400.1 84 398.161 84 409.95C84 421.74 94.8175 419.801 102.862 418.344C106.123 417.753 108.8 420.23 108.8 423.544V441.917C108.8 445.231 111.486 447.917 114.8 447.917H140C143.314 447.917 145.101 445.417 143.808 442.366C141.872 437.799 141.559 432.731 158.4 432.731C175.241 432.731 174.928 437.799 172.992 442.366C171.699 445.417 173.486 447.917 176.8 447.917H202C205.314 447.917 208 445.231 208 441.917V423.544C208 420.23 205.339 417.91 202.194 418.954C193.291 421.909 179.882 427.144 179.882 409.95C179.882 394.99 193.223 398.893 202.126 401.22Z" stroke="#FFA800" stroke-opacity="0.4" stroke-width="4.94"/>
</g>
<g opacity="0.5">
<path d="M1107.13 338.22C1110.33 339.058 1113 336.671 1113 333.357V311.742C1113 308.429 1110.31 305.742 1107 305.742H1081.8C1078.49 305.742 1076.68 303.233 1077.95 300.172C1079.92 295.416 1080.36 290 1063.4 290C1046.86 290 1046.87 295.558 1048.7 300.224C1049.92 303.307 1048.31 305.742 1045 305.742H1019.8C1016.49 305.742 1013.8 308.429 1013.8 311.742V333.357C1013.8 336.671 1011.12 339.148 1007.86 338.557C999.818 337.1 989 335.161 989 346.95C989 358.74 999.818 356.801 1007.86 355.344C1011.12 354.753 1013.8 357.23 1013.8 360.544V378.917C1013.8 382.231 1016.49 384.917 1019.8 384.917H1045C1048.31 384.917 1050.1 382.417 1048.81 379.366C1046.87 374.799 1046.56 369.731 1063.4 369.731C1080.24 369.731 1079.93 374.799 1077.99 379.366C1076.7 382.417 1078.49 384.917 1081.8 384.917H1107C1110.31 384.917 1113 382.231 1113 378.917V360.544C1113 357.23 1110.34 354.91 1107.19 355.954C1098.29 358.909 1084.88 364.144 1084.88 346.95C1084.88 331.99 1098.22 335.893 1107.13 338.22Z" stroke="#FFA800" stroke-opacity="0.4" stroke-width="4.94"/>
<path d="M1107.13 338.22C1110.33 339.058 1113 336.671 1113 333.357V311.742C1113 308.429 1110.31 305.742 1107 305.742H1081.8C1078.49 305.742 1076.68 303.233 1077.95 300.172C1079.92 295.416 1080.36 290 1063.4 290C1046.86 290 1046.87 295.558 1048.7 300.224C1049.92 303.307 1048.31 305.742 1045 305.742H1019.8C1016.49 305.742 1013.8 308.429 1013.8 311.742V333.357C1013.8 336.671 1011.12 339.148 1007.86 338.557C999.818 337.1 989 335.161 989 346.95C989 358.74 999.818 356.801 1007.86 355.344C1011.12 354.753 1013.8 357.23 1013.8 360.544V378.917C1013.8 382.231 1016.49 384.917 1019.8 384.917H1045C1048.31 384.917 1050.1 382.417 1048.81 379.366C1046.87 374.799 1046.56 369.731 1063.4 369.731C1080.24 369.731 1079.93 374.799 1077.99 379.366C1076.7 382.417 1078.49 384.917 1081.8 384.917H1107C1110.31 384.917 1113 382.231 1113 378.917V360.544C1113 357.23 1110.34 354.91 1107.19 355.954C1098.29 358.909 1084.88 364.144 1084.88 346.95C1084.88 331.99 1098.22 335.893 1107.13 338.22Z" stroke="#FFA800" stroke-opacity="0.4" stroke-width="4.94"/>
<path d="M1107.13 338.22C1110.33 339.058 1113 336.671 1113 333.357V311.742C1113 308.429 1110.31 305.742 1107 305.742H1081.8C1078.49 305.742 1076.68 303.233 1077.95 300.172C1079.92 295.416 1080.36 290 1063.4 290C1046.86 290 1046.87 295.558 1048.7 300.224C1049.92 303.307 1048.31 305.742 1045 305.742H1019.8C1016.49 305.742 1013.8 308.429 1013.8 311.742V333.357C1013.8 336.671 1011.12 339.148 1007.86 338.557C999.818 337.1 989 335.161 989 346.95C989 358.74 999.818 356.801 1007.86 355.344C1011.12 354.753 1013.8 357.23 1013.8 360.544V378.917C1013.8 382.231 1016.49 384.917 1019.8 384.917H1045C1048.31 384.917 1050.1 382.417 1048.81 379.366C1046.87 374.799 1046.56 369.731 1063.4 369.731C1080.24 369.731 1079.93 374.799 1077.99 379.366C1076.7 382.417 1078.49 384.917 1081.8 384.917H1107C1110.31 384.917 1113 382.231 1113 378.917V360.544C1113 357.23 1110.34 354.91 1107.19 355.954C1098.29 358.909 1084.88 364.144 1084.88 346.95C1084.88 331.99 1098.22 335.893 1107.13 338.22Z" stroke="#FFA800" stroke-opacity="0.4" stroke-width="4.94"/>
<path d="M1107.13 338.22C1110.33 339.058 1113 336.671 1113 333.357V311.742C1113 308.429 1110.31 305.742 1107 305.742H1081.8C1078.49 305.742 1076.68 303.233 1077.95 300.172C1079.92 295.416 1080.36 290 1063.4 290C1046.86 290 1046.87 295.558 1048.7 300.224C1049.92 303.307 1048.31 305.742 1045 305.742H1019.8C1016.49 305.742 1013.8 308.429 1013.8 311.742V333.357C1013.8 336.671 1011.12 339.148 1007.86 338.557C999.818 337.1 989 335.161 989 346.95C989 358.74 999.818 356.801 1007.86 355.344C1011.12 354.753 1013.8 357.23 1013.8 360.544V378.917C1013.8 382.231 1016.49 384.917 1019.8 384.917H1045C1048.31 384.917 1050.1 382.417 1048.81 379.366C1046.87 374.799 1046.56 369.731 1063.4 369.731C1080.24 369.731 1079.93 374.799 1077.99 379.366C1076.7 382.417 1078.49 384.917 1081.8 384.917H1107C1110.31 384.917 1113 382.231 1113 378.917V360.544C1113 357.23 1110.34 354.91 1107.19 355.954C1098.29 358.909 1084.88 364.144 1084.88 346.95C1084.88 331.99 1098.22 335.893 1107.13 338.22Z" stroke="#FFA800" stroke-opacity="0.4" stroke-width="4.94"/>
</g>
</g>
</svg>
