<svg width="113" height="87" viewBox="0 0 113 87" fill="none" xmlns="http://www.w3.org/2000/svg">
<path d="M107.518 45.0574C110.265 45.3402 112.5 43.2196 112.5 40.4582V19.7629C112.5 17.0014 110.261 14.7629 107.5 14.7629H83.992C81.2305 14.7629 79.683 12.6567 80.8025 10.1323C82.6781 5.90269 83.4566 1 67.8227 1C52.5819 1 52.9385 6.04747 54.7037 10.1821C55.788 12.7218 54.4149 14.7629 51.6534 14.7629H28.1457C25.3842 14.7629 23.1457 17.0014 23.1457 19.7629V40.4582C23.1457 43.2197 20.9139 45.3013 18.1965 44.8101C10.9147 43.4939 0.807129 41.4819 0.807129 52.298C0.807129 63.1141 10.9147 61.102 18.1965 59.7858C20.9139 59.2946 23.1457 61.3763 23.1457 64.1377V81.4966C23.1457 84.258 25.3842 86.4966 28.1457 86.4966H51.6534C54.4149 86.4966 55.9645 84.3898 54.8405 81.8675C52.9666 77.6623 52.1955 72.8171 67.8227 72.8171C83.4499 72.8171 82.6788 77.6623 80.8049 81.8675C79.6809 84.3898 81.2305 86.4966 83.992 86.4966H107.5C110.261 86.4966 112.5 84.258 112.5 81.4966V64.1377C112.5 61.3763 110.266 59.2803 107.534 59.6826C100.533 60.7137 91 62.0625 91 52.5C91 43.637 100.518 44.3368 107.518 45.0574Z" fill="#F7E025" stroke="#F7E025" stroke-width="0.9375"/>
<path d="M56.9478 51.6045V39.2266H60.3047V51.6045C60.3047 52.7845 60.0483 53.7977 59.5356 54.644C59.0229 55.4823 58.3231 56.1252 57.436 56.5728C56.549 57.0203 55.548 57.2441 54.4331 57.2441C53.2856 57.2441 52.2684 57.0529 51.3813 56.6704C50.4943 56.2798 49.7985 55.6857 49.2939 54.8882C48.7975 54.0907 48.5493 53.0775 48.5493 51.8486H51.9185C51.9185 52.516 52.0202 53.0531 52.2236 53.46C52.4271 53.8669 52.716 54.1598 53.0903 54.3389C53.4728 54.5179 53.9204 54.6074 54.4331 54.6074C54.9295 54.6074 55.3649 54.4935 55.7393 54.2656C56.1217 54.0296 56.4188 53.6878 56.6304 53.2402C56.842 52.7926 56.9478 52.2474 56.9478 51.6045ZM72.939 52.3857C72.939 52.0439 72.8861 51.7388 72.7803 51.4702C72.6826 51.1935 72.4995 50.9453 72.231 50.7256C71.9705 50.4977 71.6003 50.278 71.1201 50.0664C70.6481 49.8467 70.0378 49.6188 69.2891 49.3828C68.459 49.1224 67.6859 48.8294 66.9697 48.5039C66.2536 48.1784 65.6229 47.8 65.0776 47.3687C64.5405 46.9373 64.1214 46.4409 63.8203 45.8794C63.5192 45.3097 63.3687 44.6506 63.3687 43.9019C63.3687 43.1694 63.5233 42.5021 63.8325 41.8999C64.1499 41.2977 64.5975 40.7809 65.1753 40.3496C65.7531 39.9102 66.4326 39.5724 67.2139 39.3364C68.0033 39.1004 68.874 38.9824 69.8262 38.9824C71.1445 38.9824 72.2839 39.2225 73.2441 39.7026C74.2126 40.1828 74.9613 40.8338 75.4902 41.6558C76.0192 42.4777 76.2837 43.4014 76.2837 44.4268H72.939C72.939 43.8734 72.821 43.3851 72.585 42.9619C72.3571 42.5387 72.0072 42.2051 71.5352 41.9609C71.0713 41.7168 70.4854 41.5947 69.7773 41.5947C69.0938 41.5947 68.5241 41.6965 68.0684 41.8999C67.6208 42.1034 67.283 42.38 67.0552 42.73C66.8354 43.0799 66.7256 43.4705 66.7256 43.9019C66.7256 44.2274 66.8029 44.5203 66.9575 44.7808C67.1121 45.033 67.3441 45.2731 67.6533 45.501C67.9626 45.7207 68.3451 45.9282 68.8008 46.1235C69.2646 46.3107 69.8018 46.4979 70.4121 46.6851C71.3887 46.978 72.2432 47.3035 72.9756 47.6616C73.7161 48.0197 74.3306 48.4266 74.8188 48.8823C75.3153 49.3381 75.6855 49.8507 75.9297 50.4204C76.182 50.9901 76.3081 51.637 76.3081 52.3613C76.3081 53.1263 76.1576 53.8099 75.8564 54.4121C75.5553 55.0143 75.124 55.527 74.5625 55.9502C74.001 56.3734 73.3255 56.6948 72.5361 56.9146C71.7549 57.1343 70.88 57.2441 69.9116 57.2441C69.049 57.2441 68.1945 57.1302 67.3481 56.9023C66.5099 56.6663 65.749 56.3164 65.0654 55.8525C64.3818 55.3805 63.8366 54.7865 63.4297 54.0703C63.0228 53.346 62.8193 52.4997 62.8193 51.5312H66.1885C66.1885 52.0928 66.278 52.5729 66.457 52.9717C66.6442 53.3623 66.9046 53.6838 67.2383 53.936C67.5801 54.1802 67.9788 54.3592 68.4346 54.4731C68.8903 54.5871 69.3826 54.644 69.9116 54.644C70.5952 54.644 71.1567 54.5505 71.5962 54.3633C72.0438 54.168 72.3774 53.8994 72.5972 53.5576C72.825 53.2158 72.939 52.8252 72.939 52.3857Z" fill="black"/>
</svg>
