<svg width="106" height="64" viewBox="0 0 106 64" fill="none" xmlns="http://www.w3.org/2000/svg">
<path d="M5.92 16.072H19.584V18.504H5.92V16.072ZM0.992 29V26.92H1.312C1.86667 26.92 2.32533 26.8453 2.688 26.696C3.05067 26.5467 3.232 26.2373 3.232 25.768V9.512C3.232 9.04267 3.05067 8.73333 2.688 8.584C2.32533 8.43467 1.86667 8.36 1.312 8.36H0.992V6.28H11.616V8.36H11.36C11.1467 8.36 10.9227 8.37067 10.688 8.392C10.4533 8.392 10.24 8.41333 10.048 8.456C9.856 8.47733 9.696 8.50933 9.568 8.552C9.46133 8.57333 9.408 8.616 9.408 8.68V26.6C9.408 26.664 9.46133 26.7173 9.568 26.76C9.696 26.7813 9.856 26.8133 10.048 26.856C10.24 26.8773 10.4533 26.8987 10.688 26.92C10.9227 26.92 11.1467 26.92 11.36 26.92H11.616V29H0.992ZM14.784 29V26.92H15.04C15.2533 26.92 15.4773 26.92 15.712 26.92C15.9467 26.8987 16.16 26.8773 16.352 26.856C16.544 26.8133 16.6933 26.7813 16.8 26.76C16.928 26.7173 16.992 26.664 16.992 26.6V8.68C16.992 8.616 16.928 8.57333 16.8 8.552C16.6933 8.50933 16.544 8.47733 16.352 8.456C16.16 8.41333 15.9467 8.392 15.712 8.392C15.4773 8.37067 15.2533 8.36 15.04 8.36H14.784V6.28H25.408V8.36H25.088C24.5333 8.36 24.0747 8.43467 23.712 8.584C23.3493 8.73333 23.168 9.04267 23.168 9.512V25.768C23.168 26.2373 23.3493 26.5467 23.712 26.696C24.0747 26.8453 24.5333 26.92 25.088 26.92H25.408V29H14.784ZM32.9738 20.872C32.9738 21.832 33.0591 22.6853 33.2298 23.432C33.4004 24.1573 33.6671 24.776 34.0298 25.288C34.3924 25.7787 34.8404 26.152 35.3738 26.408C35.9284 26.6427 36.5684 26.76 37.2938 26.76C38.0618 26.76 38.7231 26.6213 39.2778 26.344C39.8324 26.0453 40.3124 25.6613 40.7178 25.192C41.1231 24.7227 41.4538 24.2533 41.7098 23.784L43.6938 25.192C43.2884 26.0027 42.7551 26.7173 42.0938 27.336C41.4324 27.9547 40.6324 28.4453 39.6938 28.808C38.7764 29.1493 37.6778 29.32 36.3978 29.32C34.5418 29.32 32.9098 28.9787 31.5018 28.296C30.1151 27.6133 29.0378 26.6427 28.2698 25.384C27.5018 24.104 27.1178 22.5893 27.1178 20.84C27.1178 19.1333 27.4911 17.64 28.2378 16.36C29.0058 15.0587 30.0404 14.056 31.3418 13.352C32.6644 12.6267 34.1578 12.264 35.8218 12.264C37.1658 12.264 38.3391 12.4667 39.3418 12.872C40.3658 13.256 41.2191 13.8427 41.9018 14.632C42.5844 15.4213 43.1071 16.4027 43.4698 17.576C43.8324 18.7493 44.0138 20.1253 44.0138 21.704H32.2058L32.1738 19.432H39.2778L38.5738 20.36C38.5524 19.272 38.4884 18.3653 38.3818 17.64C38.2751 16.9147 38.1151 16.3387 37.9018 15.912C37.6884 15.4853 37.4218 15.1867 37.1018 15.016C36.7818 14.824 36.3978 14.728 35.9498 14.728C35.5018 14.728 35.0964 14.8453 34.7338 15.08C34.3711 15.3147 34.0618 15.6773 33.8058 16.168C33.5498 16.6587 33.3471 17.2987 33.1978 18.088C33.0484 18.856 32.9738 19.784 32.9738 20.872ZM50.219 10.344C49.259 10.344 48.491 10.12 47.915 9.672C47.3603 9.20267 47.083 8.552 47.083 7.72C47.083 6.888 47.3603 6.248 47.915 5.8C48.491 5.33067 49.259 5.096 50.219 5.096C51.2003 5.096 51.9683 5.33067 52.523 5.8C53.099 6.248 53.387 6.888 53.387 7.72C53.387 8.552 53.099 9.20267 52.523 9.672C51.9683 10.12 51.2003 10.344 50.219 10.344ZM53.227 12.584V26.088C53.227 26.472 53.387 26.728 53.707 26.856C54.0483 26.984 54.4537 27.048 54.923 27.048H54.955V29H45.675V27.048H45.707C46.1977 27.048 46.603 26.984 46.923 26.856C47.243 26.728 47.403 26.472 47.403 26.088V15.752C47.403 15.4107 47.2857 15.176 47.051 15.048C46.8163 14.92 46.443 14.8027 45.931 14.696L45.675 14.632V12.584H53.227ZM56.3 29V27.048H56.332C56.652 27.048 56.94 27.0267 57.196 26.984C57.452 26.92 57.644 26.824 57.772 26.696C57.9213 26.5467 57.996 26.344 57.996 26.088V15.752C57.996 15.5173 57.9427 15.3467 57.836 15.24C57.7507 15.112 57.6013 15.016 57.388 14.952C57.1747 14.8667 56.8973 14.7813 56.556 14.696L56.3 14.632V12.584H63.468V16.136H63.852V26.76C63.852 26.824 63.9267 26.8773 64.076 26.92C64.2467 26.9627 64.4387 26.9947 64.652 27.016C64.8867 27.0373 65.1 27.048 65.292 27.048H65.388V29H56.3ZM76.428 29H67.34V27.048H67.372C67.564 27.048 67.7773 27.048 68.012 27.048C68.2467 27.0267 68.4493 26.9947 68.62 26.952C68.7907 26.888 68.876 26.824 68.876 26.76V17.736C68.876 17.2027 68.812 16.7653 68.684 16.424C68.556 16.0827 68.364 15.8267 68.108 15.656C67.852 15.4853 67.5107 15.4 67.084 15.4C66.572 15.4 66.092 15.5493 65.644 15.848C65.196 16.1253 64.7693 16.5413 64.364 17.096C63.9587 17.6507 63.5747 18.344 63.212 19.176L63.148 16.232C63.5747 15.4 64.076 14.696 64.652 14.12C65.2493 13.5227 65.932 13.064 66.7 12.744C67.4893 12.424 68.3533 12.264 69.292 12.264C70.38 12.264 71.3293 12.4773 72.14 12.904C72.9507 13.3093 73.58 13.928 74.028 14.76C74.476 15.5707 74.7 16.584 74.7 17.8V26.088C74.7 26.344 74.7747 26.5467 74.924 26.696C75.0733 26.824 75.2653 26.92 75.5 26.984C75.756 27.0267 76.044 27.048 76.364 27.048H76.428V29Z" fill="#FFA800"/>
<path d="M8.922 35.852C8.49133 35.852 8.09467 35.8747 7.732 35.92C7.392 35.9427 7.086 36.0107 6.814 36.124C6.542 36.2373 6.32667 36.3847 6.168 36.566C6.032 36.7473 5.95267 36.9967 5.93 37.314L5.692 40.238H2.258V32.86H21.774V36.634L8.514 56.762L6.984 54.008H14.736C15.5973 54.008 16.2887 53.974 16.81 53.906C17.354 53.8153 17.7507 53.668 18 53.464C18.2493 53.26 18.3967 52.954 18.442 52.546L18.884 48.772H22.318V57H1.544V53.09L14.396 33.506L15.586 35.852H8.922ZM35.3485 46.494V48.772C34.8272 48.8627 34.3512 48.9873 33.9205 49.146C33.5125 49.282 33.1498 49.4633 32.8325 49.69C32.5152 49.894 32.2545 50.1207 32.0505 50.37C31.8465 50.6193 31.6878 50.9027 31.5745 51.22C31.4838 51.5373 31.4385 51.8773 31.4385 52.24C31.4385 52.716 31.4952 53.1013 31.6085 53.396C31.7218 53.6907 31.8918 53.906 32.1185 54.042C32.3452 54.178 32.6172 54.246 32.9345 54.246C33.2972 54.246 33.6258 54.1327 33.9205 53.906C34.2152 53.6793 34.4758 53.362 34.7025 52.954C34.9518 52.546 35.1672 52.0587 35.3485 51.492L35.4165 53.94C35.0992 54.688 34.6912 55.3113 34.1925 55.81C33.6938 56.3087 33.0818 56.694 32.3565 56.966C31.6312 57.2153 30.7812 57.34 29.8065 57.34C28.5145 57.34 27.4265 57.17 26.5425 56.83C25.6585 56.49 24.9898 55.98 24.5365 55.3C24.1058 54.5973 23.8905 53.7133 23.8905 52.648C23.8905 51.696 24.1285 50.88 24.6045 50.2C25.1032 49.52 25.8285 48.9533 26.7805 48.5C27.7552 48.024 28.9565 47.6273 30.3845 47.31C31.8125 46.9927 33.4672 46.7207 35.3485 46.494ZM35.1445 57V53.804L34.7025 53.94V43.944C34.7025 43.536 34.6345 43.196 34.4985 42.924C34.3625 42.652 34.1585 42.448 33.8865 42.312C33.6145 42.176 33.2632 42.108 32.8325 42.108C32.2205 42.108 31.7105 42.2553 31.3025 42.55C30.8945 42.822 30.5998 43.1733 30.4185 43.604C30.1238 43.4227 29.9312 43.2413 29.8405 43.06C29.7725 42.856 29.7725 42.6633 29.8405 42.482C29.9085 42.278 30.0672 42.108 30.3165 41.972C30.5658 41.8133 30.8718 41.7227 31.2345 41.7V45.406H25.1825V41.564C25.4998 41.3147 26.0212 41.0087 26.7465 40.646C27.4718 40.2607 28.4125 39.9207 29.5685 39.626C30.7472 39.3087 32.1525 39.15 33.7845 39.15C35.1672 39.15 36.4138 39.286 37.5245 39.558C38.6352 39.8073 39.5758 40.1927 40.3465 40.714C41.1398 41.2353 41.7405 41.904 42.1485 42.72C42.5792 43.5133 42.7945 44.4653 42.7945 45.576V53.498C42.7945 53.6793 42.8172 53.8267 42.8625 53.94C42.9305 54.0307 43.0325 54.11 43.1685 54.178C43.3045 54.246 43.4858 54.314 43.7125 54.382L43.9505 54.45V57H35.1445ZM60.0049 39.558V46.324C59.8235 46.2787 59.6195 46.2333 59.3929 46.188C59.1662 46.1427 58.9282 46.1087 58.6789 46.086C58.4295 46.0633 58.1689 46.052 57.8969 46.052C57.4209 46.052 56.9562 46.086 56.5029 46.154C56.0722 46.1993 55.6642 46.29 55.2789 46.426C54.8935 46.562 54.5422 46.7547 54.2249 47.004C53.9302 47.2533 53.6922 47.5707 53.5109 47.956V46.154C53.7829 44.8393 54.1115 43.672 54.4969 42.652C54.8822 41.6093 55.3922 40.8047 56.0269 40.238C56.6842 39.6487 57.5569 39.354 58.6449 39.354C58.9622 39.354 59.2342 39.3767 59.4609 39.422C59.7102 39.4673 59.8915 39.5127 60.0049 39.558ZM44.8409 57V54.552H44.8749C45.1922 54.552 45.4529 54.4953 45.6569 54.382C45.8835 54.2687 45.9969 54.042 45.9969 53.702V42.992C45.9969 42.8107 45.9629 42.6747 45.8949 42.584C45.8495 42.4707 45.7589 42.38 45.6229 42.312C45.4869 42.244 45.3055 42.176 45.0789 42.108L44.8409 42.04V39.49H53.8509V45.372L54.3269 44.93V54.28C54.3269 54.348 54.4289 54.4047 54.6329 54.45C54.8369 54.4953 55.0749 54.5293 55.3469 54.552C55.6189 54.552 55.8795 54.552 56.1289 54.552H56.2309V57H44.8409ZM61.3096 57V54.552H61.3436C61.5476 54.552 61.729 54.5293 61.8876 54.484C62.069 54.416 62.205 54.3253 62.2956 54.212C62.409 54.076 62.4656 53.906 62.4656 53.702V42.992C62.4656 42.8107 62.4316 42.6747 62.3636 42.584C62.3183 42.4707 62.2276 42.38 62.0916 42.312C61.9556 42.244 61.7743 42.176 61.5476 42.108L61.3096 42.04V39.49H70.3196V43.332L70.7956 43.128V54.28C70.7956 54.348 70.841 54.4047 70.9316 54.45C71.045 54.4953 71.1696 54.5293 71.3056 54.552C71.4643 54.552 71.6003 54.552 71.7136 54.552H71.8156V57H61.3096ZM83.7496 57H73.2436V54.552H73.2776C73.4136 54.552 73.561 54.552 73.7196 54.552C73.8783 54.5293 74.003 54.4953 74.0936 54.45C74.207 54.4047 74.2636 54.348 74.2636 54.28V44.93C74.2636 44.5447 74.2183 44.2387 74.1276 44.012C74.037 43.7853 73.901 43.6153 73.7196 43.502C73.561 43.366 73.3456 43.298 73.0736 43.298C72.6656 43.298 72.2803 43.4453 71.9176 43.74C71.5776 44.0347 71.249 44.4767 70.9316 45.066C70.637 45.6553 70.3423 46.392 70.0476 47.276L69.9796 43.57C70.3196 42.686 70.7956 41.9153 71.4076 41.258C72.0423 40.578 72.8016 40.0567 73.6856 39.694C74.5696 39.3313 75.533 39.15 76.5756 39.15C77.7996 39.15 78.8536 39.388 79.7376 39.864C80.6443 40.34 81.347 41.0313 81.8456 41.938C82.3443 42.8447 82.5936 43.9667 82.5936 45.304V53.702C82.5936 53.906 82.639 54.076 82.7296 54.212C82.843 54.3253 82.979 54.416 83.1376 54.484C83.2963 54.5293 83.4776 54.552 83.6816 54.552H83.7496V57ZM93.2858 48.262C93.2858 49.2367 93.3425 50.0867 93.4558 50.812C93.5692 51.5373 93.7618 52.1493 94.0338 52.648C94.3285 53.124 94.7252 53.4867 95.2238 53.736C95.7225 53.9853 96.3458 54.11 97.0938 54.11C97.8192 54.11 98.4425 53.9627 98.9638 53.668C99.5078 53.3733 99.9838 52.9993 100.392 52.546C100.8 52.07 101.128 51.594 101.378 51.118L103.86 52.682C103.406 53.6113 102.806 54.4273 102.058 55.13C101.332 55.8327 100.437 56.3767 99.3718 56.762C98.3065 57.1473 97.0258 57.34 95.5298 57.34C93.3312 57.34 91.4385 56.9773 89.8518 56.252C88.2652 55.5267 87.0525 54.484 86.2138 53.124C85.3752 51.764 84.9558 50.1433 84.9558 48.262C84.9558 46.426 85.3752 44.828 86.2138 43.468C87.0752 42.0853 88.2538 41.02 89.7498 40.272C91.2685 39.524 92.9912 39.15 94.9178 39.15C96.4592 39.15 97.8078 39.3653 98.9638 39.796C100.142 40.2267 101.128 40.8727 101.922 41.734C102.715 42.5727 103.316 43.638 103.724 44.93C104.132 46.1993 104.336 47.6727 104.336 49.35H92.2658V46.63H97.4678L96.8218 47.718C96.7992 46.562 96.7538 45.6213 96.6858 44.896C96.6178 44.1707 96.5158 43.6153 96.3798 43.23C96.2665 42.8447 96.0965 42.584 95.8698 42.448C95.6658 42.2893 95.4165 42.21 95.1218 42.21C94.8272 42.21 94.5665 42.312 94.3398 42.516C94.1132 42.6973 93.9205 43.026 93.7618 43.502C93.6032 43.9553 93.4785 44.5673 93.3878 45.338C93.3198 46.1087 93.2858 47.0833 93.2858 48.262Z" fill="black"/>
</svg>
