<svg width="105" height="64" viewBox="0 0 105 64" fill="none" xmlns="http://www.w3.org/2000/svg">
<path d="M5.42 16.072H19.084V18.504H5.42V16.072ZM0.492 29V26.92H0.812C1.36667 26.92 1.82533 26.8453 2.188 26.696C2.55067 26.5467 2.732 26.2373 2.732 25.768V9.512C2.732 9.04267 2.55067 8.73333 2.188 8.584C1.82533 8.43467 1.36667 8.36 0.812 8.36H0.492V6.28H11.116V8.36H10.86C10.6467 8.36 10.4227 8.37067 10.188 8.392C9.95333 8.392 9.74 8.41333 9.548 8.456C9.356 8.47733 9.196 8.50933 9.068 8.552C8.96133 8.57333 8.908 8.616 8.908 8.68V26.6C8.908 26.664 8.96133 26.7173 9.068 26.76C9.196 26.7813 9.356 26.8133 9.548 26.856C9.74 26.8773 9.95333 26.8987 10.188 26.92C10.4227 26.92 10.6467 26.92 10.86 26.92H11.116V29H0.492ZM14.284 29V26.92H14.54C14.7533 26.92 14.9773 26.92 15.212 26.92C15.4467 26.8987 15.66 26.8773 15.852 26.856C16.044 26.8133 16.1933 26.7813 16.3 26.76C16.428 26.7173 16.492 26.664 16.492 26.6V8.68C16.492 8.616 16.428 8.57333 16.3 8.552C16.1933 8.50933 16.044 8.47733 15.852 8.456C15.66 8.41333 15.4467 8.392 15.212 8.392C14.9773 8.37067 14.7533 8.36 14.54 8.36H14.284V6.28H24.908V8.36H24.588C24.0333 8.36 23.5747 8.43467 23.212 8.584C22.8493 8.73333 22.668 9.04267 22.668 9.512V25.768C22.668 26.2373 22.8493 26.5467 23.212 26.696C23.5747 26.8453 24.0333 26.92 24.588 26.92H24.908V29H14.284ZM32.4738 20.872C32.4738 21.832 32.5591 22.6853 32.7298 23.432C32.9004 24.1573 33.1671 24.776 33.5298 25.288C33.8924 25.7787 34.3404 26.152 34.8738 26.408C35.4284 26.6427 36.0684 26.76 36.7938 26.76C37.5618 26.76 38.2231 26.6213 38.7778 26.344C39.3324 26.0453 39.8124 25.6613 40.2178 25.192C40.6231 24.7227 40.9538 24.2533 41.2098 23.784L43.1938 25.192C42.7884 26.0027 42.2551 26.7173 41.5938 27.336C40.9324 27.9547 40.1324 28.4453 39.1938 28.808C38.2764 29.1493 37.1778 29.32 35.8978 29.32C34.0418 29.32 32.4098 28.9787 31.0018 28.296C29.6151 27.6133 28.5378 26.6427 27.7698 25.384C27.0018 24.104 26.6178 22.5893 26.6178 20.84C26.6178 19.1333 26.9911 17.64 27.7378 16.36C28.5058 15.0587 29.5404 14.056 30.8418 13.352C32.1644 12.6267 33.6578 12.264 35.3218 12.264C36.6658 12.264 37.8391 12.4667 38.8418 12.872C39.8658 13.256 40.7191 13.8427 41.4018 14.632C42.0844 15.4213 42.6071 16.4027 42.9698 17.576C43.3324 18.7493 43.5138 20.1253 43.5138 21.704H31.7058L31.6738 19.432H38.7778L38.0738 20.36C38.0524 19.272 37.9884 18.3653 37.8818 17.64C37.7751 16.9147 37.6151 16.3387 37.4018 15.912C37.1884 15.4853 36.9218 15.1867 36.6018 15.016C36.2818 14.824 35.8978 14.728 35.4498 14.728C35.0018 14.728 34.5964 14.8453 34.2338 15.08C33.8711 15.3147 33.5618 15.6773 33.3058 16.168C33.0498 16.6587 32.8471 17.2987 32.6978 18.088C32.5484 18.856 32.4738 19.784 32.4738 20.872ZM49.719 10.344C48.759 10.344 47.991 10.12 47.415 9.672C46.8603 9.20267 46.583 8.552 46.583 7.72C46.583 6.888 46.8603 6.248 47.415 5.8C47.991 5.33067 48.759 5.096 49.719 5.096C50.7003 5.096 51.4683 5.33067 52.023 5.8C52.599 6.248 52.887 6.888 52.887 7.72C52.887 8.552 52.599 9.20267 52.023 9.672C51.4683 10.12 50.7003 10.344 49.719 10.344ZM52.727 12.584V26.088C52.727 26.472 52.887 26.728 53.207 26.856C53.5483 26.984 53.9537 27.048 54.423 27.048H54.455V29H45.175V27.048H45.207C45.6977 27.048 46.103 26.984 46.423 26.856C46.743 26.728 46.903 26.472 46.903 26.088V15.752C46.903 15.4107 46.7857 15.176 46.551 15.048C46.3163 14.92 45.943 14.8027 45.431 14.696L45.175 14.632V12.584H52.727ZM55.8 29V27.048H55.832C56.152 27.048 56.44 27.0267 56.696 26.984C56.952 26.92 57.144 26.824 57.272 26.696C57.4213 26.5467 57.496 26.344 57.496 26.088V15.752C57.496 15.5173 57.4427 15.3467 57.336 15.24C57.2507 15.112 57.1013 15.016 56.888 14.952C56.6747 14.8667 56.3973 14.7813 56.056 14.696L55.8 14.632V12.584H62.968V16.136H63.352V26.76C63.352 26.824 63.4267 26.8773 63.576 26.92C63.7467 26.9627 63.9387 26.9947 64.152 27.016C64.3867 27.0373 64.6 27.048 64.792 27.048H64.888V29H55.8ZM75.928 29H66.84V27.048H66.872C67.064 27.048 67.2773 27.048 67.512 27.048C67.7467 27.0267 67.9493 26.9947 68.12 26.952C68.2907 26.888 68.376 26.824 68.376 26.76V17.736C68.376 17.2027 68.312 16.7653 68.184 16.424C68.056 16.0827 67.864 15.8267 67.608 15.656C67.352 15.4853 67.0107 15.4 66.584 15.4C66.072 15.4 65.592 15.5493 65.144 15.848C64.696 16.1253 64.2693 16.5413 63.864 17.096C63.4587 17.6507 63.0747 18.344 62.712 19.176L62.648 16.232C63.0747 15.4 63.576 14.696 64.152 14.12C64.7493 13.5227 65.432 13.064 66.2 12.744C66.9893 12.424 67.8533 12.264 68.792 12.264C69.88 12.264 70.8293 12.4773 71.64 12.904C72.4507 13.3093 73.08 13.928 73.528 14.76C73.976 15.5707 74.2 16.584 74.2 17.8V26.088C74.2 26.344 74.2747 26.5467 74.424 26.696C74.5733 26.824 74.7653 26.92 75 26.984C75.256 27.0267 75.544 27.048 75.864 27.048H75.928V29Z" fill="#FFA800"/>
<path d="M8.422 35.852C7.99133 35.852 7.59467 35.8747 7.232 35.92C6.892 35.9427 6.586 36.0107 6.314 36.124C6.042 36.2373 5.82667 36.3847 5.668 36.566C5.532 36.7473 5.45267 36.9967 5.43 37.314L5.192 40.238H1.758V32.86H21.274V36.634L8.014 56.762L6.484 54.008H14.236C15.0973 54.008 15.7887 53.974 16.31 53.906C16.854 53.8153 17.2507 53.668 17.5 53.464C17.7493 53.26 17.8967 52.954 17.942 52.546L18.384 48.772H21.818V57H1.044V53.09L13.896 33.506L15.086 35.852H8.422ZM34.8485 46.494V48.772C34.3272 48.8627 33.8512 48.9873 33.4205 49.146C33.0125 49.282 32.6498 49.4633 32.3325 49.69C32.0152 49.894 31.7545 50.1207 31.5505 50.37C31.3465 50.6193 31.1878 50.9027 31.0745 51.22C30.9838 51.5373 30.9385 51.8773 30.9385 52.24C30.9385 52.716 30.9952 53.1013 31.1085 53.396C31.2218 53.6907 31.3918 53.906 31.6185 54.042C31.8452 54.178 32.1172 54.246 32.4345 54.246C32.7972 54.246 33.1258 54.1327 33.4205 53.906C33.7152 53.6793 33.9758 53.362 34.2025 52.954C34.4518 52.546 34.6672 52.0587 34.8485 51.492L34.9165 53.94C34.5992 54.688 34.1912 55.3113 33.6925 55.81C33.1938 56.3087 32.5818 56.694 31.8565 56.966C31.1312 57.2153 30.2812 57.34 29.3065 57.34C28.0145 57.34 26.9265 57.17 26.0425 56.83C25.1585 56.49 24.4898 55.98 24.0365 55.3C23.6058 54.5973 23.3905 53.7133 23.3905 52.648C23.3905 51.696 23.6285 50.88 24.1045 50.2C24.6032 49.52 25.3285 48.9533 26.2805 48.5C27.2552 48.024 28.4565 47.6273 29.8845 47.31C31.3125 46.9927 32.9672 46.7207 34.8485 46.494ZM34.6445 57V53.804L34.2025 53.94V43.944C34.2025 43.536 34.1345 43.196 33.9985 42.924C33.8625 42.652 33.6585 42.448 33.3865 42.312C33.1145 42.176 32.7632 42.108 32.3325 42.108C31.7205 42.108 31.2105 42.2553 30.8025 42.55C30.3945 42.822 30.0998 43.1733 29.9185 43.604C29.6238 43.4227 29.4312 43.2413 29.3405 43.06C29.2725 42.856 29.2725 42.6633 29.3405 42.482C29.4085 42.278 29.5672 42.108 29.8165 41.972C30.0658 41.8133 30.3718 41.7227 30.7345 41.7V45.406H24.6825V41.564C24.9998 41.3147 25.5212 41.0087 26.2465 40.646C26.9718 40.2607 27.9125 39.9207 29.0685 39.626C30.2472 39.3087 31.6525 39.15 33.2845 39.15C34.6672 39.15 35.9138 39.286 37.0245 39.558C38.1352 39.8073 39.0758 40.1927 39.8465 40.714C40.6398 41.2353 41.2405 41.904 41.6485 42.72C42.0792 43.5133 42.2945 44.4653 42.2945 45.576V53.498C42.2945 53.6793 42.3172 53.8267 42.3625 53.94C42.4305 54.0307 42.5325 54.11 42.6685 54.178C42.8045 54.246 42.9858 54.314 43.2125 54.382L43.4505 54.45V57H34.6445ZM59.5049 39.558V46.324C59.3235 46.2787 59.1195 46.2333 58.8929 46.188C58.6662 46.1427 58.4282 46.1087 58.1789 46.086C57.9295 46.0633 57.6689 46.052 57.3969 46.052C56.9209 46.052 56.4562 46.086 56.0029 46.154C55.5722 46.1993 55.1642 46.29 54.7789 46.426C54.3935 46.562 54.0422 46.7547 53.7249 47.004C53.4302 47.2533 53.1922 47.5707 53.0109 47.956V46.154C53.2829 44.8393 53.6115 43.672 53.9969 42.652C54.3822 41.6093 54.8922 40.8047 55.5269 40.238C56.1842 39.6487 57.0569 39.354 58.1449 39.354C58.4622 39.354 58.7342 39.3767 58.9609 39.422C59.2102 39.4673 59.3915 39.5127 59.5049 39.558ZM44.3409 57V54.552H44.3749C44.6922 54.552 44.9529 54.4953 45.1569 54.382C45.3835 54.2687 45.4969 54.042 45.4969 53.702V42.992C45.4969 42.8107 45.4629 42.6747 45.3949 42.584C45.3495 42.4707 45.2589 42.38 45.1229 42.312C44.9869 42.244 44.8055 42.176 44.5789 42.108L44.3409 42.04V39.49H53.3509V45.372L53.8269 44.93V54.28C53.8269 54.348 53.9289 54.4047 54.1329 54.45C54.3369 54.4953 54.5749 54.5293 54.8469 54.552C55.1189 54.552 55.3795 54.552 55.6289 54.552H55.7309V57H44.3409ZM60.8096 57V54.552H60.8436C61.0476 54.552 61.229 54.5293 61.3876 54.484C61.569 54.416 61.705 54.3253 61.7956 54.212C61.909 54.076 61.9656 53.906 61.9656 53.702V42.992C61.9656 42.8107 61.9316 42.6747 61.8636 42.584C61.8183 42.4707 61.7276 42.38 61.5916 42.312C61.4556 42.244 61.2743 42.176 61.0476 42.108L60.8096 42.04V39.49H69.8196V43.332L70.2956 43.128V54.28C70.2956 54.348 70.341 54.4047 70.4316 54.45C70.545 54.4953 70.6696 54.5293 70.8056 54.552C70.9643 54.552 71.1003 54.552 71.2136 54.552H71.3156V57H60.8096ZM83.2496 57H72.7436V54.552H72.7776C72.9136 54.552 73.061 54.552 73.2196 54.552C73.3783 54.5293 73.503 54.4953 73.5936 54.45C73.707 54.4047 73.7636 54.348 73.7636 54.28V44.93C73.7636 44.5447 73.7183 44.2387 73.6276 44.012C73.537 43.7853 73.401 43.6153 73.2196 43.502C73.061 43.366 72.8456 43.298 72.5736 43.298C72.1656 43.298 71.7803 43.4453 71.4176 43.74C71.0776 44.0347 70.749 44.4767 70.4316 45.066C70.137 45.6553 69.8423 46.392 69.5476 47.276L69.4796 43.57C69.8196 42.686 70.2956 41.9153 70.9076 41.258C71.5423 40.578 72.3016 40.0567 73.1856 39.694C74.0696 39.3313 75.033 39.15 76.0756 39.15C77.2996 39.15 78.3536 39.388 79.2376 39.864C80.1443 40.34 80.847 41.0313 81.3456 41.938C81.8443 42.8447 82.0936 43.9667 82.0936 45.304V53.702C82.0936 53.906 82.139 54.076 82.2296 54.212C82.343 54.3253 82.479 54.416 82.6376 54.484C82.7963 54.5293 82.9776 54.552 83.1816 54.552H83.2496V57ZM92.7858 48.262C92.7858 49.2367 92.8425 50.0867 92.9558 50.812C93.0692 51.5373 93.2618 52.1493 93.5338 52.648C93.8285 53.124 94.2252 53.4867 94.7238 53.736C95.2225 53.9853 95.8458 54.11 96.5938 54.11C97.3192 54.11 97.9425 53.9627 98.4638 53.668C99.0078 53.3733 99.4838 52.9993 99.8918 52.546C100.3 52.07 100.628 51.594 100.878 51.118L103.36 52.682C102.906 53.6113 102.306 54.4273 101.558 55.13C100.832 55.8327 99.9372 56.3767 98.8718 56.762C97.8065 57.1473 96.5258 57.34 95.0298 57.34C92.8312 57.34 90.9385 56.9773 89.3518 56.252C87.7652 55.5267 86.5525 54.484 85.7138 53.124C84.8752 51.764 84.4558 50.1433 84.4558 48.262C84.4558 46.426 84.8752 44.828 85.7138 43.468C86.5752 42.0853 87.7538 41.02 89.2498 40.272C90.7685 39.524 92.4912 39.15 94.4178 39.15C95.9592 39.15 97.3078 39.3653 98.4638 39.796C99.6425 40.2267 100.628 40.8727 101.422 41.734C102.215 42.5727 102.816 43.638 103.224 44.93C103.632 46.1993 103.836 47.6727 103.836 49.35H91.7658V46.63H96.9678L96.3218 47.718C96.2992 46.562 96.2538 45.6213 96.1858 44.896C96.1178 44.1707 96.0158 43.6153 95.8798 43.23C95.7665 42.8447 95.5965 42.584 95.3698 42.448C95.1658 42.2893 94.9165 42.21 94.6218 42.21C94.3272 42.21 94.0665 42.312 93.8398 42.516C93.6132 42.6973 93.4205 43.026 93.2618 43.502C93.1032 43.9553 92.9785 44.5673 92.8878 45.338C92.8198 46.1087 92.7858 47.0833 92.7858 48.262Z" fill="#FAF9F6"/>
</svg>
