<svg width="114" height="87" viewBox="0 0 114 87" fill="none" xmlns="http://www.w3.org/2000/svg">
<path d="M104.797 44.4593C107.457 45.1977 109.679 43.2196 109.679 40.4582V20.1799C109.679 17.4185 107.441 15.1799 104.679 15.1799H83.1781C80.4167 15.1799 78.8233 13.0563 79.8642 10.4986C81.6389 6.13781 82.4197 1 67.6777 1C53.3028 1 53.6873 6.27601 55.3608 10.5415C56.3694 13.1121 54.9388 15.1799 52.1774 15.1799H30.6763C27.9149 15.1799 25.6763 17.4185 25.6763 20.1799V38.5795C25.6763 41.9754 22.37 44.345 19.0679 43.552C10.1167 41.4024 1.38525 41.5519 1.38525 52.5C1.38525 63.1693 9.67768 64.1913 18.3847 61.8174C21.8958 60.8601 25.6763 63.2747 25.6763 66.914V81.4966C25.6763 84.258 27.9149 86.4966 30.6763 86.4966H52.1774C54.9388 86.4966 56.52 84.378 55.4571 81.8293C53.7071 77.6331 53.0308 72.8171 67.6777 72.8171C82.3247 72.8171 81.6484 77.6331 79.8984 81.8293C78.8355 84.378 80.4167 86.4966 83.1781 86.4966H104.679C107.441 86.4966 109.679 84.258 109.679 81.4966V64.1377C109.679 61.3763 107.463 59.456 104.859 60.3735C97.3204 63.029 85.8685 67.8507 85.8685 52.298C85.8685 38.7679 97.2577 42.3672 104.797 44.4593Z" fill="black" stroke="black" stroke-width="0.9375"/>
<g clip-path="url(#clip0_282_54)">
<rect x="49" y="34" width="32" height="28" rx="14" fill="white"/>
<mask id="mask0_282_54" style="mask-type:luminance" maskUnits="userSpaceOnUse" x="49" y="34" width="32" height="28">
<path d="M80 34H50C49.4477 34 49 34.4477 49 35V61C49 61.5523 49.4477 62 50 62H80C80.5523 62 81 61.5523 81 61V35C81 34.4477 80.5523 34 80 34Z" fill="white"/>
</mask>
<g mask="url(#mask0_282_54)">
<path d="M63.9521 34.0075C63.8833 34.013 63.6643 34.0322 63.4672 34.0459C58.9222 34.4044 54.6649 36.5503 51.9685 39.8484C50.4671 41.6822 49.5067 43.7624 49.1439 45.9657C49.0156 46.7349 49 46.962 49 48.0048C49 49.0477 49.0156 49.2748 49.1439 50.0439C50.0135 55.3018 54.2895 59.7194 60.089 61.3561C61.1275 61.649 62.2223 61.8488 63.4672 61.9692C63.9521 62.0158 66.0479 62.0158 66.5328 61.9692C68.6817 61.7612 70.5023 61.2959 72.2977 60.494C72.5731 60.3708 72.6261 60.338 72.5887 60.3106C72.5636 60.2941 71.3907 58.9174 69.9829 57.2533L67.4243 54.2288L64.218 50.0768C62.6748 48.0801 61.371 46.4018 61.0601 46.0125C61.0143 45.9551 60.9863 45.9631 60.9845 46.0365C60.9739 46.4635 60.9639 48.0933 60.9585 50.022C60.9492 53.9661 60.946 54.1249 60.8897 54.2179C60.8084 54.352 60.7458 54.4068 60.6145 54.467C60.5144 54.5108 60.4268 54.519 59.9545 54.519H59.5776C59.4698 54.519 59.3638 54.4917 59.2694 54.4397V54.4397C59.1756 54.3876 59.1067 54.3191 59.0598 54.2398V54.2398C59.0167 54.1589 58.9942 54.0686 58.9943 53.977L59.0004 48.6288L59.0095 43.2825C59.0097 43.1897 59.0443 43.1003 59.1067 43.0316V43.0316C59.1568 42.9741 59.2631 42.9002 59.3382 42.8646C59.4665 42.8099 59.5165 42.8044 60.0577 42.8044C60.6958 42.8044 60.8021 42.8263 60.9679 42.985C61.0149 43.0288 62.7509 45.317 64.828 48.0733C66.9049 50.8294 69.7452 54.5928 71.1404 56.4404L73.585 59.6806C73.6359 59.7481 73.7291 59.7671 73.8024 59.7249V59.7249C74.9379 59.0789 76.1391 58.1592 77.0899 57.2013C79.1137 55.1677 80.4181 52.6879 80.8561 50.0439C80.9844 49.2748 81 49.0477 81 48.0048C81 46.962 80.9844 46.7349 80.8561 45.9657C79.9865 40.7078 75.7104 36.2902 69.9111 34.6535C68.8881 34.3634 67.7996 34.1635 66.5797 34.0431C66.2793 34.0157 64.2117 33.9856 63.9521 34.0075ZM70.5023 42.476C70.6524 42.5417 70.7744 42.6676 70.8181 42.7989C70.8432 42.8701 70.8495 44.3919 70.8432 47.8214L70.837 51.0835C70.836 51.6143 70.1595 51.838 69.8423 51.4124V51.4124L69.0467 50.3486C68.9173 50.1757 68.8475 49.9656 68.8475 49.7497V46.5049C68.8475 44.1921 68.86 42.892 68.8788 42.829C68.9288 42.6758 69.0383 42.5553 69.1884 42.4842C69.3167 42.4267 69.3636 42.4212 69.8548 42.4212C70.3177 42.4212 70.3991 42.4267 70.5023 42.476Z" fill="black"/>
</g>
</g>
<defs>
<clipPath id="clip0_282_54">
<rect x="49" y="34" width="32" height="28" rx="14" fill="white"/>
</clipPath>
</defs>
</svg>
