<svg width="113" height="87" viewBox="0 0 113 87" fill="none" xmlns="http://www.w3.org/2000/svg">
<path d="M107.581 44.27C110.254 44.963 112.479 42.9535 112.479 40.1921V19.9138C112.479 17.1524 110.241 14.9138 107.479 14.9138H83.9715C81.21 14.9138 79.6482 12.8017 80.749 10.2692C82.648 5.90059 83.5273 0.733887 67.8022 0.733887C52.4616 0.733887 52.9233 6.04438 54.7181 10.3171C55.7875 12.863 54.3944 14.9138 51.6329 14.9138H28.1251C25.3637 14.9138 23.1251 17.1524 23.1251 19.9138V40.1921C23.1251 42.9535 20.8934 45.0352 18.176 44.544C10.8942 43.2278 0.786621 41.2157 0.786621 52.0318C0.786621 62.8479 10.8942 60.8359 18.176 59.5197C20.8934 59.0285 23.1251 61.1101 23.1251 63.8716V81.2305C23.1251 83.9919 25.3637 86.2305 28.1251 86.2305H51.6329C54.3944 86.2305 55.944 84.1237 54.82 81.6013C52.9461 77.3962 52.175 72.551 67.8022 72.551C83.4294 72.551 82.6583 77.3962 80.7844 81.6013C79.6604 84.1237 81.21 86.2305 83.9715 86.2305H107.479C110.241 86.2305 112.479 83.9919 112.479 81.2305V63.8716C112.479 61.1101 110.257 59.1525 107.634 60.0144C99.6222 62.6464 87.1518 67.768 87.1518 52.0318C87.1518 38.3346 99.5677 42.1926 107.581 44.27Z" fill="#00DCFF" stroke="#00DCFF" stroke-width="0.9375"/>
<path d="M65.9741 47.8378C65.9741 46.4544 64.6298 45.3328 62.9714 45.3328C61.3132 45.3328 59.9688 46.4544 59.9688 47.8378C59.9688 49.2214 61.3132 50.3429 62.9714 50.3429C64.6298 50.3429 65.9741 49.2214 65.9741 47.8378Z" fill="white"/>
<path fill-rule="evenodd" clip-rule="evenodd" d="M72.7233 43.187C73.3573 41.0374 74.1544 37.051 71.3446 35.6995C68.5479 34.3539 64.9086 36.9323 62.9869 38.48C61.0708 36.9478 57.3293 34.3804 54.5219 35.7362C51.7263 37.0863 52.5884 41.0065 53.2366 43.1697C50.6288 43.7876 46.1584 45.1185 46.1584 47.8378C46.1584 50.5493 50.6241 51.9973 53.2165 52.6146C52.5659 54.7898 51.747 58.654 54.5461 60.0011C57.364 61.3566 61.0939 58.8504 63.0334 57.2857C64.9675 58.8425 68.5718 61.3652 71.369 60.0143C74.175 58.6592 73.4442 54.7263 72.796 52.5506C75.309 51.9319 79.7842 50.5154 79.7842 47.8378C79.7842 45.1446 75.2899 43.8029 72.7233 43.187ZM72.4047 51.3976C71.9791 50.2737 71.4047 49.0784 70.702 47.8437C71.3727 46.6382 71.9249 45.4584 72.3386 44.3417C74.2202 44.7968 78.3478 45.8369 78.3478 47.8378C78.3478 49.8574 74.3868 50.9074 72.4047 51.3976ZM70.6492 58.9772C68.5622 59.985 65.462 57.5726 64.0337 56.4261C64.9813 55.5615 65.9282 54.5564 66.8523 53.4402C68.478 53.3199 70.0137 53.1232 71.4065 52.8546C71.8627 54.3936 72.7455 57.9648 70.6492 58.9772ZM55.2639 58.9628C53.1766 57.9587 54.1306 54.5105 54.6092 52.9082C55.9865 53.1625 57.5112 53.3453 59.1407 53.4555C60.0709 54.5477 61.0453 55.5516 62.0271 56.4308C60.814 57.4098 57.3609 59.9715 55.2639 58.9628ZM47.5948 47.8378C47.5948 45.8106 51.6978 44.778 53.6223 44.324C54.0431 45.4658 54.5951 46.6597 55.2612 47.867C54.5865 49.0922 54.0266 50.305 53.6019 51.4603C51.7669 51.0221 47.5948 49.8662 47.5948 47.8378ZM55.2416 36.7733C57.3373 35.7613 60.5892 38.2261 61.9804 39.3355C61.0036 40.2106 60.0382 41.2069 59.1159 42.2928C57.5345 42.4151 56.0206 42.6114 54.6289 42.8745C54.1067 41.1299 53.148 37.7843 55.2416 36.7733ZM67.8799 43.5954C68.9528 43.7083 69.9807 43.8586 70.9459 44.0424C70.6562 44.8172 70.295 45.6274 69.8697 46.458C69.2531 45.482 68.5912 44.5256 67.8799 43.5954ZM62.9874 40.1918C63.6499 40.7906 64.3135 41.4593 64.9662 42.1848C63.6422 42.1325 62.316 42.1323 60.9919 42.184C61.6452 41.4653 62.3145 40.7976 62.9874 40.1918ZM56.0853 46.4572C55.667 45.6295 55.3091 44.8157 55.0168 44.0298C55.9763 43.8507 56.9994 43.7043 58.0653 43.5931C57.352 44.5213 56.6913 45.4774 56.0853 46.4572ZM58.0959 52.1679C56.9948 52.0654 55.9562 51.9264 54.997 51.7522C55.2939 50.9525 55.6597 50.1212 56.087 49.2757C56.7012 50.2657 57.3721 51.231 58.0959 52.1679ZM63.0272 55.5684C62.3463 54.9554 61.6672 54.2775 61.004 53.5484C62.3356 53.592 63.6697 53.5921 65.0012 53.5425C64.3464 54.285 63.6852 54.9638 63.0272 55.5684ZM69.8833 49.2326C70.3328 50.0873 70.7117 50.9141 71.0126 51.7004C70.0376 51.886 68.985 52.0355 67.8759 52.1465C68.5924 51.1987 69.2648 50.2274 69.8833 49.2326ZM66.0507 52.2918C64.0138 52.4132 61.9644 52.4118 59.9269 52.3017C58.7691 50.8908 57.7385 49.407 56.8489 47.8666C57.7342 46.3294 58.7574 44.8485 59.9096 43.4398C61.9486 43.3112 64.0001 43.3109 66.039 43.4406C67.1814 44.8491 68.2029 46.3262 69.1088 47.8495C68.2137 49.386 67.1852 50.8699 66.0507 52.2918ZM70.6271 36.7377C72.7235 37.7464 71.7904 41.3291 71.3324 42.887C69.9374 42.6184 68.4224 42.4186 66.8364 42.2943C65.9124 41.1967 64.955 40.1987 63.994 39.3348C65.403 38.2015 68.5511 35.7388 70.6271 36.7377Z" fill="white"/>
</svg>
