<svg width="114" height="87" viewBox="0 0 114 87" fill="none" xmlns="http://www.w3.org/2000/svg">
<path d="M107.875 44.4984C110.542 45.2139 112.765 43.2196 112.765 40.4582V20.1799C112.765 17.4185 110.527 15.1799 107.765 15.1799H85.2763C82.5148 15.1799 80.9371 13.062 82.0077 10.5165C83.8434 6.1519 84.6717 1 69.4466 1C54.5973 1 55.0187 6.29281 56.7517 10.5618C57.7904 13.1205 56.3784 15.1799 53.617 15.1799H31.1281C28.3666 15.1799 26.1281 17.4185 26.1281 20.1799V38.6439C26.1281 42.021 22.8553 44.3922 19.5695 43.6125C10.2484 41.4006 1.0752 41.4503 1.0752 52.5C1.0752 63.2885 9.81991 64.2129 18.909 61.7366C22.3962 60.7864 26.1281 63.2019 26.1281 66.8163V81.4966C26.1281 84.258 28.3666 86.4966 31.1281 86.4966H53.617C56.3784 86.4966 57.9439 84.3838 56.8508 81.8479C55.04 77.6474 54.318 72.8171 69.4466 72.8171C84.5753 72.8171 83.8533 77.6474 82.0425 81.8479C80.9493 84.3838 82.5148 86.4966 85.2763 86.4966H107.765C110.527 86.4966 112.765 84.258 112.765 81.4966V64.1377C112.765 61.3763 110.546 59.4367 107.932 60.3263C100.16 62.9708 88.2078 67.9434 88.2078 52.298C88.2078 38.6832 100.102 42.4129 107.875 44.4984Z" fill="#38BDF8" stroke="#38BDF8" stroke-width="0.9375"/>
<path d="M58.75 44.6667C59.7833 40.2222 62.3667 38 66.5 38C72.7 38 73.475 43 76.575 43.8333C78.6417 44.3889 80.45 43.5556 82 41.3333C80.9667 45.7778 78.3833 48 74.25 48C68.05 48 67.275 43 64.175 42.1667C62.1083 41.6111 60.3 42.4444 58.75 44.6667ZM51 54.6667C52.0333 50.2222 54.6167 48 58.75 48C64.95 48 65.725 53 68.825 53.8333C70.8917 54.3889 72.7 53.5556 74.25 51.3333C73.2167 55.7778 70.6333 58 66.5 58C60.3 58 59.525 53 56.425 52.1667C54.3583 51.6111 52.55 52.4444 51 54.6667Z" fill="white"/>
</svg>
