<svg width="382" height="251" viewBox="0 0 382 251" fill="none" xmlns="http://www.w3.org/2000/svg">
<path d="M197.463 44.5361C200.136 45.2291 202.361 43.2197 202.361 40.4582V23.0993C202.361 20.3379 200.123 18.0993 197.361 18.0993H173.854C171.092 18.0993 169.447 15.9567 170.431 13.3762C172.449 8.0795 173.954 1 157.684 1C141.747 1 142.865 8.21728 144.815 13.4139C145.785 15.9994 144.276 18.0993 141.515 18.0993H118.007C115.246 18.0993 113.007 20.3379 113.007 23.0993V40.4582C113.007 43.2196 110.776 45.3013 108.058 44.8101C100.776 43.4939 90.6687 41.4818 90.6687 52.298C90.6687 63.1141 100.776 61.102 108.058 59.7858C110.776 59.2946 113.007 61.3763 113.007 64.1377V81.4966C113.007 84.258 115.246 86.4966 118.007 86.4966H141.515C144.276 86.4966 145.826 84.3898 144.702 81.8675C142.828 77.6623 142.057 72.8171 157.684 72.8171C173.312 72.8171 172.54 77.6623 170.666 81.8675C169.542 84.3898 171.092 86.4966 173.854 86.4966H197.361C200.123 86.4966 202.361 84.258 202.361 81.4966V64.1377C202.361 61.3763 200.139 59.4186 197.516 60.2805C189.504 62.9125 177.034 68.0341 177.034 52.298C177.034 38.6007 189.45 42.4587 197.463 44.5361Z" fill="#C9C9C9" stroke="#D9D9D9" stroke-width="0.9375"/>
<path d="M376.023 204.954C378.688 204.23 380.912 206.228 380.912 208.99V223.713C380.912 226.474 378.673 228.713 375.912 228.713H352.499C349.737 228.713 347.981 230.888 348.817 233.52C350.927 240.167 353.265 250.4 336.361 250.4C319.744 250.4 321.72 240.028 323.797 233.493C324.633 230.862 322.984 228.713 320.223 228.713H296.81C294.048 228.713 291.81 226.474 291.81 223.713V208.323C291.81 205.239 289.078 203.043 286.115 203.898C277.62 206.35 266.23 209.477 266.23 196.183C266.23 183.743 276.99 184.985 285.046 187.37C288.378 188.356 291.81 186.025 291.81 182.55V163.647C291.81 160.886 294.048 158.647 296.81 158.647H320.223C322.984 158.647 324.716 160.819 323.832 163.435C321.743 169.62 319.65 178.666 336.361 178.666C353.071 178.666 350.978 169.62 348.889 163.435C348.006 160.819 349.737 158.647 352.499 158.647H375.912C378.673 158.647 380.912 160.886 380.912 163.647V184.71C380.912 187.471 378.691 189.415 376.08 188.517C368.091 185.769 355.656 180.423 355.656 196.85C355.656 211.146 368.032 207.123 376.023 204.954Z" fill="#C9C9C9" stroke="#C9C9C9" stroke-width="0.9375"/>
<path d="M376.036 133.637C378.701 132.913 380.926 134.912 380.926 137.673V153.647C380.926 156.409 378.687 158.647 375.926 158.647H352.418C349.656 158.647 347.924 160.818 348.805 163.435C350.926 169.735 353.133 179.083 336.374 179.083C319.918 179.083 321.698 169.593 323.75 163.406C324.62 160.785 322.998 158.647 320.237 158.647H297.11C294.384 158.647 292.161 156.464 292.111 153.738L291.834 138.566C291.779 135.519 289.068 133.384 286.142 134.235C277.551 136.733 265.866 139.906 266.244 124.866C266.622 109.85 278.479 114.323 286.589 116.926C289.331 117.805 291.736 115.763 291.745 112.883L291.808 91.8985C291.816 89.1429 294.052 86.9135 296.808 86.9135H320.236C322.998 86.9135 324.676 89.0661 323.697 91.6484C321.668 97.0033 320.06 104.113 336.374 104.113C352.689 104.113 351.08 97.0033 349.051 91.6484C348.073 89.0661 349.751 86.9135 352.512 86.9135H375.926C378.687 86.9135 380.926 89.1521 380.926 91.9135V113.393C380.926 116.154 378.705 118.098 376.093 117.2C368.105 114.452 355.669 109.106 355.669 125.533C355.669 139.829 368.045 135.806 376.036 133.637Z" fill="#38BDF8" stroke="#38BDF8" stroke-width="0.9375"/>
<path d="M326.882 123.718C327.983 119.826 330.736 117.88 335.14 117.88C341.748 117.88 342.574 122.259 345.877 122.989C348.08 123.475 350.007 122.745 351.658 120.799C350.557 124.692 347.804 126.638 343.399 126.638C336.792 126.638 335.966 122.259 332.663 121.529C330.46 121.042 328.533 121.772 326.882 123.718ZM318.623 132.477C319.724 128.584 322.477 126.638 326.882 126.638C333.489 126.638 334.315 131.017 337.618 131.747C339.821 132.233 341.748 131.503 343.399 129.557C342.298 133.45 339.545 135.396 335.14 135.396C328.533 135.396 327.707 131.017 324.404 130.287C322.201 129.801 320.274 130.53 318.623 132.477Z" fill="white"/>
<path d="M107.746 188.258C110.462 188.758 112.693 186.687 112.693 183.926V163.647C112.693 160.886 110.454 158.647 107.693 158.647H84.1848C81.4234 158.647 79.8616 156.535 80.9624 154.003C82.8614 149.634 83.7407 144.468 68.0156 144.468C52.675 144.468 53.1367 149.778 54.9315 154.051C56.0009 156.597 54.6077 158.647 51.8463 158.647H28.3385C25.5771 158.647 23.3385 160.886 23.3385 163.647V183.926C23.3385 186.687 21.1068 188.769 18.3894 188.278C11.1076 186.961 1 184.949 1 195.765C1 206.582 11.1076 204.57 18.3894 203.253C21.1068 202.762 23.3385 204.844 23.3385 207.605V224.964C23.3385 227.726 25.5771 229.964 28.3385 229.964H51.8463C54.6077 229.964 56.1574 227.857 55.0334 225.335C53.1595 221.13 52.3883 216.285 68.0156 216.285C83.6428 216.285 82.8717 221.13 80.9977 225.335C79.8737 227.857 81.4234 229.964 84.1848 229.964H107.693C110.454 229.964 112.693 227.726 112.693 224.964V207.605C112.693 204.844 110.461 202.785 107.755 203.336C100.719 204.766 91.0393 206.899 90.6687 195.765C90.3077 184.919 100.491 186.924 107.746 188.258Z" fill="#C9C9C9" stroke="#C9C9C9" stroke-width="0.9375"/>
<path d="M197.463 188.004C200.136 188.697 202.361 186.687 202.361 183.926V163.23C202.361 160.469 200.123 158.23 197.361 158.23H173.854C171.092 158.23 169.545 156.124 170.664 153.6C172.54 149.37 173.318 144.468 157.684 144.468C142.444 144.468 142.8 149.515 144.565 153.65C145.65 156.189 144.276 158.23 141.515 158.23H118.007C115.246 158.23 113.007 160.469 113.007 163.23V183.926C113.007 186.687 110.776 188.769 108.058 188.278C100.776 186.961 90.6687 184.949 90.6687 195.765C90.6687 206.582 100.776 204.57 108.058 203.253C110.776 202.762 113.007 204.844 113.007 207.605V224.964C113.007 227.726 115.246 229.964 118.007 229.964H141.515C144.276 229.964 145.826 227.857 144.702 225.335C142.828 221.13 142.057 216.285 157.684 216.285C173.312 216.285 172.54 221.13 170.666 225.335C169.542 227.857 171.092 229.964 173.854 229.964H197.361C200.123 229.964 202.361 227.726 202.361 224.964V207.605C202.361 204.844 200.139 202.886 197.516 203.748C189.504 206.38 177.034 211.502 177.034 195.765C177.034 182.068 189.45 185.926 197.463 188.004Z" fill="#F7E025" stroke="#F7E025" stroke-width="0.9375"/>
<path d="M147.748 192.978V180.6H151.104V192.978C151.104 194.158 150.848 195.171 150.335 196.017C149.823 196.855 149.123 197.498 148.236 197.946C147.349 198.393 146.348 198.617 145.233 198.617C144.085 198.617 143.068 198.426 142.181 198.043C141.294 197.653 140.598 197.059 140.094 196.261C139.597 195.464 139.349 194.451 139.349 193.222H142.718C142.718 193.889 142.82 194.426 143.023 194.833C143.227 195.24 143.516 195.533 143.89 195.712C144.273 195.891 144.72 195.98 145.233 195.98C145.729 195.98 146.165 195.867 146.539 195.639C146.922 195.403 147.219 195.061 147.43 194.613C147.642 194.166 147.748 193.62 147.748 192.978ZM163.739 193.759C163.739 193.417 163.686 193.112 163.58 192.843C163.482 192.567 163.299 192.318 163.031 192.099C162.77 191.871 162.4 191.651 161.92 191.439C161.448 191.22 160.838 190.992 160.089 190.756C159.259 190.495 158.486 190.202 157.77 189.877C157.053 189.551 156.423 189.173 155.877 188.742C155.34 188.31 154.921 187.814 154.62 187.252C154.319 186.683 154.168 186.024 154.168 185.275C154.168 184.542 154.323 183.875 154.632 183.273C154.95 182.671 155.397 182.154 155.975 181.723C156.553 181.283 157.232 180.945 158.014 180.709C158.803 180.473 159.674 180.355 160.626 180.355C161.944 180.355 163.084 180.596 164.044 181.076C165.012 181.556 165.761 182.207 166.29 183.029C166.819 183.851 167.083 184.774 167.083 185.8H163.739C163.739 185.246 163.621 184.758 163.385 184.335C163.157 183.912 162.807 183.578 162.335 183.334C161.871 183.09 161.285 182.968 160.577 182.968C159.894 182.968 159.324 183.069 158.868 183.273C158.421 183.476 158.083 183.753 157.855 184.103C157.635 184.453 157.525 184.844 157.525 185.275C157.525 185.6 157.603 185.893 157.757 186.154C157.912 186.406 158.144 186.646 158.453 186.874C158.762 187.094 159.145 187.301 159.601 187.497C160.064 187.684 160.602 187.871 161.212 188.058C162.188 188.351 163.043 188.677 163.775 189.035C164.516 189.393 165.13 189.8 165.619 190.255C166.115 190.711 166.485 191.224 166.729 191.793C166.982 192.363 167.108 193.01 167.108 193.734C167.108 194.499 166.957 195.183 166.656 195.785C166.355 196.387 165.924 196.9 165.362 197.323C164.801 197.746 164.125 198.068 163.336 198.288C162.555 198.507 161.68 198.617 160.711 198.617C159.849 198.617 158.994 198.503 158.148 198.275C157.31 198.039 156.549 197.689 155.865 197.226C155.182 196.754 154.636 196.16 154.229 195.443C153.823 194.719 153.619 193.873 153.619 192.904H156.988C156.988 193.466 157.078 193.946 157.257 194.345C157.444 194.735 157.704 195.057 158.038 195.309C158.38 195.553 158.779 195.732 159.234 195.846C159.69 195.96 160.182 196.017 160.711 196.017C161.395 196.017 161.957 195.924 162.396 195.736C162.844 195.541 163.177 195.272 163.397 194.931C163.625 194.589 163.739 194.198 163.739 193.759Z" fill="black"/>
<path d="M197.581 116.27C200.254 116.963 202.479 114.953 202.479 112.192V91.9136C202.479 89.1521 200.241 86.9136 197.479 86.9136H173.972C171.21 86.9136 169.648 84.8015 170.749 82.2689C172.648 77.9003 173.528 72.7336 157.802 72.7336C142.462 72.7336 142.924 78.0441 144.718 82.3168C145.788 84.8628 144.395 86.9136 141.633 86.9136H118.125C115.364 86.9136 113.125 89.1521 113.125 91.9136V112.192C113.125 114.953 110.894 117.035 108.176 116.544C100.894 115.228 90.7869 113.215 90.7869 124.032C90.7869 134.848 100.894 132.836 108.176 131.519C110.894 131.028 113.125 133.11 113.125 135.871V153.23C113.125 155.992 115.364 158.23 118.125 158.23H141.633C144.395 158.23 145.944 156.123 144.82 153.601C142.946 149.396 142.175 144.551 157.802 144.551C173.43 144.551 172.659 149.396 170.785 153.601C169.661 156.123 171.21 158.23 173.972 158.23H197.479C200.241 158.23 202.479 155.992 202.479 153.23V135.871C202.479 133.11 200.257 131.152 197.634 132.014C189.622 134.646 177.152 139.768 177.152 124.032C177.152 110.334 189.568 114.192 197.581 116.27Z" fill="#00DCFF" stroke="#00DCFF" stroke-width="0.9375"/>
<path d="M155.974 119.838C155.974 118.454 154.63 117.333 152.972 117.333C151.313 117.333 149.969 118.454 149.969 119.838C149.969 121.221 151.313 122.343 152.972 122.343C154.63 122.343 155.974 121.221 155.974 119.838Z" fill="white"/>
<path fill-rule="evenodd" clip-rule="evenodd" d="M162.724 115.187C163.358 113.037 164.155 109.051 161.345 107.699C158.548 106.354 154.909 108.932 152.987 110.48C151.071 108.948 147.33 106.38 144.522 107.736C141.727 109.086 142.589 113.006 143.237 115.169C140.629 115.787 136.159 117.118 136.159 119.838C136.159 122.549 140.624 123.997 143.217 124.614C142.566 126.79 141.747 130.654 144.546 132.001C147.364 133.356 151.094 130.85 153.034 129.285C154.968 130.842 158.572 133.365 161.369 132.014C164.175 130.659 163.444 126.726 162.796 124.55C165.309 123.932 169.784 122.515 169.784 119.838C169.784 117.144 165.29 115.803 162.724 115.187ZM162.405 123.397C161.979 122.273 161.405 121.078 160.702 119.843C161.373 118.638 161.925 117.458 162.339 116.341C164.22 116.797 168.348 117.837 168.348 119.838C168.348 121.857 164.387 122.907 162.405 123.397ZM160.649 130.977C158.562 131.985 155.462 129.572 154.034 128.426C154.982 127.561 155.928 126.556 156.853 125.44C158.478 125.32 160.014 125.123 161.407 124.854C161.863 126.393 162.746 129.965 160.649 130.977ZM145.264 130.963C143.177 129.958 144.131 126.51 144.609 124.908C145.987 125.162 147.511 125.345 149.141 125.455C150.071 126.547 151.045 127.551 152.027 128.431C150.814 129.41 147.361 131.971 145.264 130.963ZM137.595 119.838C137.595 117.81 141.698 116.778 143.623 116.324C144.043 117.466 144.595 118.659 145.261 119.867C144.587 121.092 144.027 122.305 143.602 123.46C141.767 123.022 137.595 121.866 137.595 119.838ZM145.242 108.773C147.338 107.761 150.589 110.226 151.981 111.335C151.004 112.21 150.038 113.207 149.116 114.293C147.535 114.415 146.021 114.611 144.629 114.874C144.107 113.13 143.148 109.784 145.242 108.773ZM157.88 115.595C158.953 115.708 159.981 115.858 160.946 116.042C160.656 116.817 160.295 117.627 159.87 118.458C159.253 117.482 158.591 116.525 157.88 115.595ZM152.988 112.192C153.65 112.79 154.314 113.459 154.966 114.185C153.642 114.132 152.316 114.132 150.992 114.184C151.645 113.465 152.315 112.797 152.988 112.192ZM146.086 118.457C145.667 117.629 145.309 116.815 145.017 116.03C145.976 115.85 147 115.704 148.066 115.593C147.352 116.521 146.692 117.477 146.086 118.457ZM148.096 124.168C146.995 124.065 145.956 123.926 144.997 123.752C145.294 122.952 145.66 122.121 146.087 121.275C146.701 122.265 147.372 123.231 148.096 124.168ZM153.027 127.568C152.347 126.955 151.667 126.277 151.004 125.548C152.336 125.592 153.67 125.592 155.001 125.542C154.347 126.285 153.685 126.964 153.027 127.568ZM159.884 121.232C160.333 122.087 160.712 122.914 161.013 123.7C160.038 123.886 158.985 124.035 157.876 124.146C158.593 123.198 159.265 122.227 159.884 121.232ZM156.051 124.292C154.014 124.413 151.965 124.412 149.927 124.301C148.769 122.891 147.739 121.407 146.849 119.866C147.734 118.329 148.758 116.848 149.91 115.44C151.949 115.311 154 115.311 156.039 115.44C157.182 116.849 158.203 118.326 159.109 119.849C158.214 121.386 157.185 122.87 156.051 124.292ZM160.627 108.737C162.724 109.746 161.791 113.329 161.333 114.887C159.938 114.618 158.423 114.418 156.837 114.294C155.913 113.196 154.955 112.198 153.994 111.335C155.403 110.201 158.551 107.739 160.627 108.737Z" fill="white"/>
<path d="M287.102 133.22C289.767 132.496 291.992 134.495 291.992 137.256V153.23C291.992 155.992 289.753 158.23 286.992 158.23H263.208C260.446 158.23 258.723 160.399 259.633 163.006C261.833 169.305 264.21 178.666 247.44 178.666C231.016 178.666 232.35 169.213 234.184 163.026C234.969 160.378 233.316 158.23 230.554 158.23H207.428C204.626 158.23 202.371 155.929 202.429 153.128L202.766 136.712C202.83 133.587 200.079 131.333 197.076 132.199C188.593 134.645 177.31 137.681 177.31 124.449C177.31 112.009 188.07 113.252 196.125 115.636C199.458 116.622 202.889 114.292 202.889 110.816V91.4965C202.889 88.7351 205.128 86.4965 207.889 86.4965H231.303C234.064 86.4965 235.742 88.6491 234.763 91.2314C232.734 96.5864 231.126 103.696 247.44 103.696C263.776 103.696 261.943 96.5679 259.804 91.2105C258.78 88.646 260.446 86.4965 263.208 86.4965H286.679C289.418 86.4965 291.647 88.6994 291.679 91.4377L291.932 112.917C291.965 115.701 289.736 117.671 287.104 116.764C279.113 114.011 266.735 108.727 266.735 125.116C266.735 139.412 279.111 135.389 287.102 133.22Z" fill="black" stroke="black" stroke-width="0.9375"/>
<g clip-path="url(#clip0_226_172)">
<rect x="224.818" y="106.098" width="37.7553" height="33.3645" rx="16.6823" fill="white"/>
<mask id="mask0_226_172" style="mask-type:luminance" maskUnits="userSpaceOnUse" x="224" y="106" width="39" height="34">
<path d="M261.573 106.098H225.818C225.266 106.098 224.818 106.546 224.818 107.098V138.462C224.818 139.015 225.266 139.462 225.818 139.462H261.573C262.126 139.462 262.573 139.015 262.573 138.462V107.098C262.573 106.546 262.126 106.098 261.573 106.098Z" fill="white"/>
</mask>
<g mask="url(#mask0_226_172)">
<path d="M242.459 106.107C242.378 106.113 242.12 106.136 241.887 106.153C236.525 106.58 231.502 109.137 228.321 113.067C226.549 115.252 225.416 117.731 224.988 120.356C224.837 121.273 224.818 121.543 224.818 122.786C224.818 124.029 224.837 124.299 224.988 125.216C226.014 131.481 231.059 136.745 237.901 138.695C239.127 139.044 240.418 139.282 241.887 139.426C242.459 139.481 244.932 139.481 245.504 139.426C248.04 139.178 250.188 138.623 252.306 137.668C252.631 137.521 252.693 137.482 252.649 137.449C252.62 137.43 251.236 135.789 249.575 133.806L246.556 130.202L242.773 125.255C240.93 122.846 239.376 120.826 239.034 120.395C238.988 120.337 238.96 120.347 238.959 120.421C238.946 120.897 238.934 122.86 238.927 125.189C238.916 129.889 238.913 130.079 238.846 130.189C238.75 130.349 238.676 130.414 238.521 130.486C238.403 130.538 238.3 130.548 237.743 130.548H237.299C237.171 130.548 237.046 130.516 236.934 130.454C236.824 130.392 236.743 130.31 236.687 130.215C236.636 130.119 236.61 130.012 236.61 129.903L236.617 123.529L236.628 117.158C236.628 117.048 236.669 116.942 236.743 116.86C236.802 116.791 236.927 116.703 237.016 116.661C237.167 116.596 237.226 116.589 237.865 116.589C238.617 116.589 238.743 116.615 238.939 116.804C238.994 116.857 241.042 119.583 243.493 122.867C245.943 126.152 249.294 130.636 250.941 132.838L253.825 136.699C253.885 136.779 253.995 136.802 254.081 136.751C255.421 135.982 256.838 134.886 257.96 133.744C260.348 131.321 261.887 128.366 262.404 125.216C262.555 124.299 262.573 124.029 262.573 122.786C262.573 121.543 262.555 121.273 262.404 120.356C261.378 114.091 256.332 108.827 249.49 106.877C248.283 106.531 246.999 106.293 245.56 106.149C245.205 106.117 242.766 106.081 242.459 106.107ZM250.188 116.198C250.365 116.276 250.509 116.426 250.56 116.583C250.59 116.667 250.597 118.481 250.59 122.567L250.583 126.461C250.581 127.088 249.781 127.351 249.409 126.846L248.432 125.527C248.304 125.354 248.235 125.146 248.235 124.931V120.999C248.235 118.243 248.25 116.694 248.272 116.618C248.331 116.436 248.46 116.292 248.637 116.208C248.789 116.139 248.844 116.133 249.424 116.133C249.97 116.133 250.066 116.139 250.188 116.198Z" fill="black"/>
</g>
</g>
<defs>
<clipPath id="clip0_226_172">
<rect x="224.818" y="106.098" width="37.7553" height="33.3645" rx="16.6823" fill="white"/>
</clipPath>
</defs>
</svg>
